<?xml version="1.0" encoding="UTF-8" standalone="no"?>
<!-- Created with Inkscape (http://www.inkscape.org/) -->

<svg
   version="1.1"
   id="svg1"
   width="120.57678"
   height="254.62132"
   viewBox="0 0 120.57678 254.62132"
   xmlns="http://www.w3.org/2000/svg"
   xmlns:svg="http://www.w3.org/2000/svg">
  <defs
     id="defs1" />
  <g
     id="g1"
     transform="translate(-365.49122,-93.225358)">
    <g
       id="g1247"
       transform="translate(210.83334,40.000001)">
      <path
         id="path1126"
         d="M 275.23466,307.84669 H 154.65786 V 113.04402 c 0,-33.037334 26.7808,-59.818667 59.81947,-59.818667 h 0.93866 c 33.03733,0 59.81867,26.781333 59.81867,59.818667 v 194.80267"
         style="fill:#fabfa5;fill-opacity:1;fill-rule:nonzero;stroke:none;stroke-width:0.133333" />
      <path
         id="path1127"
         d="m 160.57866,301.92402 h 108.73466 v -188.88 c 0,-29.720001 -24.17866,-53.898667 -53.89733,-53.898667 h -0.93866 c -29.72,0 -53.89867,24.178666 -53.89867,53.898667 v 188.88 m 110.708,1.97467 h -112.682 V 113.04402 c 0,-30.808001 25.06333,-55.872 55.87267,-55.872 h 0.93866 c 30.80667,0 55.87067,25.063999 55.87067,55.872 v 190.85467"
         style="fill:#fde7de;fill-opacity:1;fill-rule:nonzero;stroke:none;stroke-width:0.133333" />
      <path
         id="path1128"
         d="m 158.10839,307.84669 h 114.11827 v -6.875 H 158.10839 Z"
         style="fill:#cecaea;fill-opacity:1;fill-rule:nonzero;stroke:none;stroke-width:0.133333" />
      <path
         id="path1129"
         d="m 272.22666,303.49869 h -4.56134 v -2.52667 h 4.56134 v 2.52667 m -110,0 h -4.11827 v -2.52667 h 4.11827 v 2.52667"
         style="fill:#e2dff3;fill-opacity:1;fill-rule:nonzero;stroke:none;stroke-width:0.133333" />
      <path
         id="path1130"
         d="M 272.22666,307.84669 H 158.10839 v -6.87467 h 114.11827 v 6.87467"
         style="fill:#cecaea;fill-opacity:1;fill-rule:nonzero;stroke:none;stroke-width:0.133333" />
      <path
         id="path1131"
         d="M 267.41599,104.86269 H 162.47733 c 0.47333,-2.03334 1.06533,-4.016 1.76666,-5.950673 0.11867,-0.32667 0.23734,-0.652 0.35467,-0.96667 3.28667,-8.586662 8.716,-16.126661 15.61333,-21.949328 0.25734,-0.217333 0.51334,-0.434667 0.77867,-0.641333 6.04133,-4.925333 13.16533,-8.557333 20.97333,-10.481333 0.31467,-0.07867 0.64,-0.157334 0.968,-0.226667 3.20667,-0.74 6.512,-1.185333 9.90667,-1.302667 0.70133,-0.04 1.40267,-0.04933 2.112,-0.04933 0.82933,0 1.648,0.01867 2.45867,0.05867 1.244,0.04933 2.476,0.148 3.69066,0.286666 1.28267,0.148 2.56534,0.334667 3.82,0.572 0.32534,0.06 0.65067,0.128 0.976,0.197334 1.56934,0.325333 3.11867,0.710666 4.63867,1.174666 3.652,1.096 7.14533,2.576 10.42133,4.392 2.03467,1.124 3.98667,2.378667 5.85333,3.750667 0.26534,0.186666 0.532,0.384 0.79867,0.592 1.056,0.809333 2.08267,1.648 3.07867,2.545333 5.52666,4.894667 10.03733,10.925333 13.18533,17.716 0.13867,0.305333 0.28667,0.621333 0.41467,0.926666 1.32266,2.990666 2.36933,6.118669 3.12933,9.356009"
         style="fill:#1e5db2;fill-opacity:1;fill-rule:nonzero;stroke:none;stroke-width:0.133333" />
      <path
         id="path1132"
         d="m 257.76399,104.86269 h -85.63466 c 4.54933,-19.442671 21.988,-33.929338 42.82133,-33.929338 20.824,0 38.26266,14.486667 42.81333,33.929338"
         style="fill:#3a7bc7;fill-opacity:1;fill-rule:nonzero;stroke:none;stroke-width:0.133333" />
      <path
         id="path1133"
         d="m 214.95066,87.404019 c -7.02533,0 -12.73067,5.714666 -12.73067,12.732001 0,1.668 0.32534,3.26667 0.91867,4.72667 h 1.056 c -0.632,-1.45067 -0.988,-3.04934 -0.988,-4.72667 0,-6.474668 5.27067,-11.745335 11.744,-11.745335 6.47467,0 11.74533,5.270667 11.74533,11.745335 0,1.67733 -0.356,3.276 -0.988,4.72667 h 1.05734 c 0.592,-1.46 0.91733,-3.05867 0.91733,-4.72667 0,-7.017335 -5.71467,-12.732001 -12.732,-12.732001"
         style="fill:#6dabe1;fill-opacity:1;fill-rule:nonzero;stroke:none;stroke-width:0.133333" />
      <path
         id="path1134"
         d="m 203.17733,102.60269 -0.73067,-0.0693 -38.20267,-3.621343 c 0.11867,-0.32666 0.23734,-0.652 0.35467,-0.96666 l 37.7,3.581333 0.66133,0.0587 0.02,0.23733 c 0.06,0.208 0.10934,0.40534 0.15867,0.60267 l 0.0387,0.17733"
         style="fill:#6dabe1;fill-opacity:1;fill-rule:nonzero;stroke:none;stroke-width:0.133333" />
      <path
         id="path1135"
         d="m 204.70799,94.154685 c -0.188,0.285334 -0.356,0.572 -0.504,0.869334 l -0.66133,-0.524 -23.33067,-18.504 c 0.25734,-0.217333 0.51334,-0.434667 0.77867,-0.641333 l 23.036,18.257333 0.68133,0.542666"
         style="fill:#6dabe1;fill-opacity:1;fill-rule:nonzero;stroke:none;stroke-width:0.133333" />
      <path
         id="path1136"
         d="m 211.00266,88.657352 c -0.32533,0.08 -0.63067,0.188 -0.93733,0.306667 l -0.168,-0.504 -7.93334,-23.586666 c 0.31467,-0.07867 0.64,-0.157334 0.968,-0.226667 l 7.884,23.447999 0.18667,0.562667"
         style="fill:#6dabe1;fill-opacity:1;fill-rule:nonzero;stroke:none;stroke-width:0.133333" />
      <path
         id="path1137"
         d="m 225.89599,64.409353 -6.15866,23.931999 -0.11867,0.464 c -0.28667,-0.07867 -0.56267,-0.157333 -0.848,-0.206667 l -0.10933,-0.03867 0.14933,-0.553334 6.10933,-23.794666 c 0.32534,0.06 0.65067,0.128 0.976,0.197334"
         style="fill:#6dabe1;fill-opacity:1;fill-rule:nonzero;stroke:none;stroke-width:0.133333" />
      <path
         id="path1138"
         d="m 247.60799,74.318686 -21.47466,19.737333 -0.32534,0.296 c -0.1,-0.168 -0.188,-0.336 -0.29733,-0.493334 -0.0587,-0.137333 -0.13867,-0.256 -0.20667,-0.385333 l 0.30534,-0.285333 21.19999,-19.461333 c 0.26534,0.186666 0.532,0.384 0.79867,0.592"
         style="fill:#6dabe1;fill-opacity:1;fill-rule:nonzero;stroke:none;stroke-width:0.133333" />
      <path
         id="path1139"
         d="m 264.28666,95.506685 -36.70267,6.197335 -0.78,0.12933 c 0.0787,-0.34533 0.13734,-0.68133 0.17867,-1.02666 l 0.67867,-0.11867 36.21066,-6.108001 c 0.13867,0.305333 0.28667,0.621333 0.41467,0.926666"
         style="fill:#6dabe1;fill-opacity:1;fill-rule:nonzero;stroke:none;stroke-width:0.133333" />
      <path
         id="path1140"
         d="m 222.68933,104.86269 h -16.62 l 14.84266,-14.842671 c 3.45867,2.046666 5.784,5.816 5.784,10.116001 0,0.24933 -0.008,0.49733 -0.024,0.744 l -3.98266,3.98267 m 4.99066,-4.990673 c -0.0427,-2.10133 -0.59866,-4.081332 -1.54666,-5.815998 l 15.41199,-14.165333 c 1.152,0.877333 2.26134,1.812 3.32,2.796 l -17.18533,17.185331 m -2.068,-6.686665 c -1.02533,-1.566667 -2.388,-2.896 -3.98266,-3.882667 l 13.48133,-13.481333 c 1.968,1.017334 3.852,2.181334 5.632,3.473334 l -15.13067,13.890666"
         style="fill:#5daae2;fill-opacity:1;fill-rule:nonzero;stroke:none;stroke-width:0.133333" />
      <path
         id="path1141"
         d="m 226.67199,100.88002 c 0.016,-0.24667 0.024,-0.49467 0.024,-0.744 0,-4.300001 -2.32533,-8.069335 -5.784,-10.116001 l 0.71734,-0.717334 c 1.59466,0.986667 2.95733,2.316 3.98266,3.882667 l -0.003,0.0027 -0.30534,0.285333 c 0.068,0.129333 0.148,0.248 0.20667,0.385333 0.10933,0.157334 0.19733,0.325334 0.29733,0.493334 l 0.32534,-0.296 c 0.948,1.734666 1.504,3.714665 1.54666,5.815995 l -1.008,1.008003"
         style="fill:#88cdf1;fill-opacity:1;fill-rule:nonzero;stroke:none;stroke-width:0.133333" />
      <path
         id="path1142"
         d="m 225.80799,94.352019 c -0.1,-0.168 -0.188,-0.336 -0.29733,-0.493334 -0.0587,-0.137333 -0.13867,-0.256 -0.20667,-0.385333 l 0.30534,-0.285333 0.003,-0.0027 15.13067,-13.890666 c 0.27066,0.196 0.536,0.394666 0.80266,0.596 l -15.41233,14.165366 -0.32534,0.296"
         style="fill:#88cdf1;fill-opacity:1;fill-rule:nonzero;stroke:none;stroke-width:0.133333" />
      <path
         id="path1143"
         d="m 191.25599,104.86269 h -11.37866 l 4.08133,-4.08134 10.39333,0.98534 -3.096,3.096 m 4.004,-4.00534 -10.39066,-0.986663 11.25466,-11.254668 6.34534,5.033333 -7.20934,7.207998 m 7.91867,-7.917331 -6.348,-5.032 9.63867,-9.638667 2.864,8.514667 -6.15467,6.156 m 6.93467,-6.934667 -2.864,-8.516 6.54266,-6.541333 c 0.38534,-0.0093 0.77067,-0.01467 1.15867,-0.01467 2.75067,0 5.444,0.252 8.05467,0.736 l -0.49867,1.94267 -12.39333,12.393333 m 13.768,-13.769333 0.0973,-0.374667 c 0.076,0.016 0.15333,0.032 0.22933,0.048 l -0.32666,0.326667"
         style="fill:#5daae2;fill-opacity:1;fill-rule:nonzero;stroke:none;stroke-width:0.133333" />
      <path
         id="path1144"
         d="m 194.35199,101.76669 -10.39333,-0.98534 0.91067,-0.910663 10.39066,0.986663 -0.908,0.90934"
         style="fill:#88cdf1;fill-opacity:1;fill-rule:nonzero;stroke:none;stroke-width:0.133333" />
      <path
         id="path1145"
         d="m 202.46933,93.649352 -6.34534,-5.033333 0.70667,-0.708 6.348,5.032 -0.70933,0.709333"
         style="fill:#88cdf1;fill-opacity:1;fill-rule:nonzero;stroke:none;stroke-width:0.133333" />
      <path
         id="path1146"
         d="m 209.33333,86.784019 -2.864,-8.514667 0.78,-0.78 2.864,8.516 -0.78,0.778667"
         style="fill:#88cdf1;fill-opacity:1;fill-rule:nonzero;stroke:none;stroke-width:0.133333" />
      <path
         id="path1147"
         d="m 222.50666,73.612019 0.49867,-1.942667 c 0.32666,0.06133 0.64933,0.124 0.97333,0.192 l -0.0973,0.374667 -1.37467,1.376"
         style="fill:#88cdf1;fill-opacity:1;fill-rule:nonzero;stroke:none;stroke-width:0.133333" />
      <path
         id="path1148"
         d="m 175.89866,104.86269 h -3.76933 c 0.0853,-0.364 0.17466,-0.72667 0.26933,-1.088 l 3.736,-3.736 4.19067,0.39733 -4.42667,4.42667 m 5.33733,-5.337343 -4.18933,-0.39733 14.30267,-14.299998 2.556,2.029333 -12.66934,12.667995 m 13.376,-13.375995 -2.55733,-2.026666 11.77467,-11.770667 c 0.2,-0.052 0.39866,-0.102667 0.59866,-0.152 l 1.04134,3.093333 -10.85734,10.856 m 11.63734,-11.636 -0.85467,-2.54 c 1.34533,-0.297333 2.712,-0.533333 4.1,-0.705333 l -3.24533,3.245333"
         style="fill:#5daae2;fill-opacity:1;fill-rule:nonzero;stroke:none;stroke-width:0.133333" />
      <path
         id="path1149"
         d="m 180.32533,100.43602 -4.19067,-0.39733 0.912,-0.910673 4.18933,0.39733 -0.91066,0.910673"
         style="fill:#88cdf1;fill-opacity:1;fill-rule:nonzero;stroke:none;stroke-width:0.133333" />
      <path
         id="path1150"
         d="m 193.90533,86.857352 -2.556,-2.029333 0.70533,-0.705333 2.55733,2.026666 -0.70666,0.708"
         style="fill:#88cdf1;fill-opacity:1;fill-rule:nonzero;stroke:none;stroke-width:0.133333" />
      <path
         id="path1151"
         d="m 205.46933,75.293352 -1.04134,-3.093333 c 0.32,-0.07867 0.644,-0.154667 0.96667,-0.226667 l 0.85467,2.54 -0.78,0.78"
         style="fill:#88cdf1;fill-opacity:1;fill-rule:nonzero;stroke:none;stroke-width:0.133333" />
      <path
         id="path1152"
         d="m 267.41599,104.86269 h -9.652 c -0.63467,-2.708 -1.51867,-5.320003 -2.62667,-7.810673 l 9.14934,-1.545332 v 0 c 1.32266,2.990662 2.36933,6.118665 3.12933,9.356005"
         style="fill:#254481;fill-opacity:1;fill-rule:nonzero;stroke:none;stroke-width:0.133333" />
      <path
         id="path1153"
         d="m 254.71199,96.125352 c -2.41067,-5.093333 -5.768,-9.648 -9.84667,-13.438666 l 5.82134,-5.822667 v 0 c 5.52666,4.894667 10.03733,10.925333 13.18533,17.716 l -9.16,1.545333"
         style="fill:#254481;fill-opacity:1;fill-rule:nonzero;stroke:none;stroke-width:0.133333" />
      <path
         id="path1154"
         d="m 235.11066,75.821352 c -3.39867,-1.76 -7.05733,-3.086666 -10.90267,-3.912 l 6.32667,-6.325333 v 0 c 3.652,1.096 7.14533,2.576 10.42133,4.392 l -5.84533,5.845333"
         style="fill:#254481;fill-opacity:1;fill-rule:nonzero;stroke:none;stroke-width:0.133333" />
      <path
         id="path1155"
         d="m 255.13732,97.052017 c -0.13866,-0.31067 -0.28,-0.619998 -0.42533,-0.926665 v 0 l 9.16,-1.545333 v 0 c 0.13867,0.305333 0.28667,0.621333 0.41467,0.926666 l -9.14934,1.545332"
         style="fill:#3f73c2;fill-opacity:1;fill-rule:nonzero;stroke:none;stroke-width:0.133333" />
      <path
         id="path1156"
         d="m 244.86532,82.686686 c -1.05866,-0.984 -2.168,-1.918667 -3.32,-2.796 l 6.06267,-5.572 v 0 c 1.056,0.809333 2.08267,1.648 3.07867,2.545333 l -5.82134,5.822667"
         style="fill:#2a65b8;fill-opacity:1;fill-rule:nonzero;stroke:none;stroke-width:0.133333" />
      <path
         id="path1157"
         d="m 240.74266,79.294686 c -1.78,-1.292 -3.664,-2.456 -5.632,-3.473334 l 5.84533,-5.845333 v 0 c 2.03467,1.124 3.98667,2.378667 5.85333,3.750667 l -6.06666,5.568"
         style="fill:#2a65b8;fill-opacity:1;fill-rule:nonzero;stroke:none;stroke-width:0.133333" />
      <path
         id="path1158"
         d="m 241.54532,79.890686 c -0.26666,-0.201334 -0.532,-0.4 -0.80266,-0.596 v 0 l 6.06666,-5.568 v 0 c 0.26534,0.186666 0.532,0.384 0.79867,0.592 l -6.06267,5.572"
         style="fill:#4b87ce;fill-opacity:1;fill-rule:nonzero;stroke:none;stroke-width:0.133333" />
      <path
         id="path1159"
         d="m 171.31066,104.86269 h -8.83333 c 0.47333,-2.03334 1.06533,-4.016 1.76666,-5.950673 v 0 l 9.39734,0.89067 c -0.47467,1.296003 -0.89067,2.621333 -1.24267,3.972003 l -1.088,1.088"
         style="fill:#254481;fill-opacity:1;fill-rule:nonzero;stroke:none;stroke-width:0.133333" />
      <path
         id="path1160"
         d="m 174.00666,98.838687 -9.408,-0.89334 c 3.28667,-8.586662 8.716,-16.126661 15.61333,-21.949328 v 0 l 6.52934,5.178667 c -5.60134,4.689333 -10.01734,10.750666 -12.73467,17.664001"
         style="fill:#254481;fill-opacity:1;fill-rule:nonzero;stroke:none;stroke-width:0.133333" />
      <path
         id="path1161"
         d="m 187.52533,80.533352 -6.53467,-5.178666 c 6.04133,-4.925333 13.16533,-8.557333 20.97333,-10.481333 v 0 l 2.352,6.991999 -0.48666,0.486667 c -6.03867,1.573333 -11.57067,4.398667 -16.304,8.181333"
         style="fill:#254481;fill-opacity:1;fill-rule:nonzero;stroke:none;stroke-width:0.133333" />
      <path
         id="path1162"
         d="m 205.09599,71.085352 -2.164,-6.438666 c 3.20667,-0.74 6.512,-1.185333 9.90667,-1.302667 l -7.74267,7.741333"
         style="fill:#254481;fill-opacity:1;fill-rule:nonzero;stroke:none;stroke-width:0.133333" />
      <path
         id="path1163"
         d="m 173.64133,99.802687 v 0 l -9.39734,-0.89067 c 0.11867,-0.32667 0.23734,-0.652 0.35467,-0.96667 v 0 l 9.408,0.89334 c -0.12533,0.32 -0.24667,0.64 -0.36533,0.964"
         style="fill:#3f73c2;fill-opacity:1;fill-rule:nonzero;stroke:none;stroke-width:0.133333" />
      <path
         id="path1164"
         d="m 186.74133,81.174686 v 0 l -6.52934,-5.178667 c 0.25734,-0.217333 0.51334,-0.434667 0.77867,-0.641333 v 0 l 6.53467,5.178666 c -0.26267,0.210667 -0.52534,0.425334 -0.784,0.641334"
         style="fill:#3f73c2;fill-opacity:1;fill-rule:nonzero;stroke:none;stroke-width:0.133333" />
      <path
         id="path1165"
         d="m 204.31599,71.865352 -2.352,-6.991999 c 0.31467,-0.07867 0.64,-0.157334 0.968,-0.226667 v 0 l 2.164,6.438666 -0.78,0.78"
         style="fill:#3f73c2;fill-opacity:1;fill-rule:nonzero;stroke:none;stroke-width:0.133333" />
      <path
         id="path1166"
         d="m 209.49466,71.268019 7.91467,-7.914666 v 0 c 1.244,0.04933 2.476,0.148 3.69066,0.286666 l -7.308,7.308 c -1.45066,0.03733 -2.88533,0.145333 -4.29733,0.32"
         style="fill:#254481;fill-opacity:1;fill-rule:nonzero;stroke:none;stroke-width:0.133333" />
      <path
         id="path1167"
         d="m 224.20799,71.909352 c -0.076,-0.016 -0.15333,-0.032 -0.22933,-0.048 l 1.91733,-7.451999 v 0 c 1.56934,0.325333 3.11867,0.710666 4.63867,1.174666 l -6.32667,6.325333"
         style="fill:#2a65b8;fill-opacity:1;fill-rule:nonzero;stroke:none;stroke-width:0.133333" />
      <path
         id="path1168"
         d="m 223.00533,71.669352 c -2.61067,-0.484 -5.304,-0.736 -8.05467,-0.736 -0.388,0 -0.77333,0.0053 -1.15867,0.01467 l 7.308,-7.308 v 0 c 1.28267,0.148 2.56534,0.334667 3.82,0.572 l -1.91466,7.457333"
         style="fill:#2a65b8;fill-opacity:1;fill-rule:nonzero;stroke:none;stroke-width:0.133333" />
      <path
         id="path1169"
         d="m 223.97866,71.861352 c -0.324,-0.068 -0.64667,-0.130666 -0.97333,-0.192 v 0 l 1.91466,-7.457333 v 0 c 0.32534,0.06 0.65067,0.128 0.976,0.197334 l -1.91733,7.451999"
         style="fill:#4b87ce;fill-opacity:1;fill-rule:nonzero;stroke:none;stroke-width:0.133333" />
      <path
         id="path1170"
         d="m 172.12933,104.86269 h -0.81867 l 1.088,-1.088 c -0.0947,0.36133 -0.184,0.724 -0.26933,1.088"
         style="fill:#2a65b8;fill-opacity:1;fill-rule:nonzero;stroke:none;stroke-width:0.133333" />
      <path
         id="path1171"
         d="m 203.82933,72.352019 0.48666,-0.486667 0.112,0.334667 c -0.2,0.04933 -0.39866,0.1 -0.59866,0.152"
         style="fill:#2a65b8;fill-opacity:1;fill-rule:nonzero;stroke:none;stroke-width:0.133333" />
      <path
         id="path1172"
         d="m 205.39466,71.973352 -0.29867,-0.888 7.74267,-7.741333 v 0 c 0.70133,-0.04 1.40267,-0.04933 2.112,-0.04933 0.82933,0 1.648,0.01867 2.45867,0.05867 l -7.91467,7.914666 c -1.388,0.172 -2.75467,0.408 -4.1,0.705333"
         style="fill:#2a65b8;fill-opacity:1;fill-rule:nonzero;stroke:none;stroke-width:0.133333" />
      <path
         id="path1173"
         d="m 204.42799,72.200019 v 0 l -0.112,-0.334667 0.78,-0.78 0.29867,0.888 c -0.32267,0.072 -0.64667,0.148 -0.96667,0.226667"
         style="fill:#4b87ce;fill-opacity:1;fill-rule:nonzero;stroke:none;stroke-width:0.133333" />
      <path
         id="path1174"
         d="m 162.22666,303.73069 h 105.43853 v -195.916 H 162.22666 Z"
         style="fill:#d2671b;fill-opacity:1;fill-rule:nonzero;stroke:none;stroke-width:0.133333" />
      <path
         id="path1175"
         d="m 166.49999,232.31735 h 7.21042 v -24.14013 h -7.21042 z"
         style="fill:#cecaea;fill-opacity:1;fill-rule:nonzero;stroke:none;stroke-width:0.133333" />
      <path
         id="path1176"
         d="m 172.29199,232.31735 h -1.41866 v -11.188 c 0.50266,-0.0587 0.98133,-0.20666 1.41866,-0.42666 v 11.61466 m 0,-21.01866 c -0.43733,-0.22 -0.91466,-0.368 -1.41866,-0.42667 v -2.69466 h 1.41866 v 3.12133"
         style="fill:#b9b5e1;fill-opacity:1;fill-rule:nonzero;stroke:none;stroke-width:0.133333" />
      <path
         id="path1177"
         d="m 171.49599,229.64402 -0.42,-2.72 c 0.304,-0.29333 0.51334,-0.72133 0.53467,-1.21467 0.044,-0.96933 -0.628,-1.79733 -1.50533,-1.79733 -0.87467,0 -1.548,0.828 -1.50534,1.79733 0.024,0.49334 0.23067,0.92134 0.536,1.21334 l -0.42133,2.72133 h 2.78133"
         style="fill:#302630;fill-opacity:1;fill-rule:nonzero;stroke:none;stroke-width:0.133333" />
      <path
         id="path1178"
         d="m 174.78266,215.42669 c 0,2.53333 -1.976,4.58533 -4.41467,4.58533 -2.43866,0 -4.416,-2.052 -4.416,-4.58533 0,-2.532 1.97734,-4.58534 4.416,-4.58534 2.43867,0 4.41467,2.05334 4.41467,4.58534"
         style="fill:#cecaea;fill-opacity:1;fill-rule:nonzero;stroke:none;stroke-width:0.133333" />
      <path
         id="path1179"
         d="m 170.37066,219.30935 c -1.84933,0 -3.34267,-1.552 -3.34267,-3.46666 0,-0.312 0.036,-0.61734 0.116,-0.9 0.376,1.48666 1.67467,2.57466 3.22667,2.57466 1.54533,0 2.84933,-1.088 3.22667,-2.57466 0.08,0.28266 0.116,0.588 0.116,0.9 0,1.91466 -1.50134,3.46666 -3.34267,3.46666"
         style="fill:#b9b5e1;fill-opacity:1;fill-rule:nonzero;stroke:none;stroke-width:0.133333" />
      <path
         id="path1180"
         d="m 174.21599,215.58402 c -0.21733,-2.02 -1.85866,-3.57867 -3.84533,-3.57867 -1.99467,0 -3.628,1.55867 -3.84667,3.57867 -0.008,-0.13467 -0.0173,-0.26933 -0.0173,-0.412 0,-2.22 1.72667,-4.01333 3.864,-4.01333 2.128,0 3.86267,1.79333 3.86267,4.01333 0,0.14267 -0.008,0.27733 -0.0173,0.412"
         style="fill:#e2dff3;fill-opacity:1;fill-rule:nonzero;stroke:none;stroke-width:0.133333" />
      <path
         id="path1181"
         d="m 173.71066,219.57202 v -1.14933 c 0.001,-10e-4 0.003,-0.003 0.003,-0.004 v 1.15066 c 0,0.001 -0.001,0.001 -0.003,0.003"
         style="fill:#aa4f1d;fill-opacity:1;fill-rule:nonzero;stroke:none;stroke-width:0.133333" />
      <path
         id="path1182"
         d="m 170.37066,221.15869 c -1.66667,0 -3.11333,-0.95734 -3.87067,-2.36534 v -1.15066 c 0.0333,0.0627 0.0693,0.124 0.10534,0.18533 0.77733,1.31067 2.17066,2.184 3.76266,2.184 0.17067,0 0.34,-0.009 0.50534,-0.0293 v 1.14666 c -0.16534,0.02 -0.33334,0.0293 -0.50267,0.0293 m 1.92133,-0.456 v -1.148 c 0.50667,-0.25467 0.96,-0.608 1.336,-1.036 0.028,-0.032 0.056,-0.064 0.0827,-0.096 v 1.14933 c -0.392,0.47067 -0.87467,0.85733 -1.41867,1.13067"
         style="fill:#ac97c6;fill-opacity:1;fill-rule:nonzero;stroke:none;stroke-width:0.133333" />
      <path
         id="path1183"
         d="m 170.87333,221.12935 v -1.14666 c 0.504,-0.06 0.98133,-0.208 1.41866,-0.428 v 1.148 c -0.43733,0.22 -0.916,0.368 -1.41866,0.42666"
         style="fill:#9b89c5;fill-opacity:1;fill-rule:nonzero;stroke:none;stroke-width:0.133333" />
      <path
         id="path1184"
         d="m 170.36799,220.01202 c -1.592,0 -2.98533,-0.87333 -3.76266,-2.184 0.78,1.30667 2.172,2.18133 3.76533,2.18133 1.28533,0 2.44667,-0.57066 3.25733,-1.49066 -0.376,0.428 -0.82933,0.78133 -1.336,1.036 -0.43733,0.22 -0.91466,0.368 -1.41866,0.428 -0.16534,0.02 -0.33467,0.0293 -0.50534,0.0293"
         style="fill:#ac97c6;fill-opacity:1;fill-rule:nonzero;stroke:none;stroke-width:0.133333" />
      <path
         id="path1185"
         d="m 179.05733,152.94936 h 29.94013 v -29.9396 h -29.94013 z"
         style="fill:#d2671b;fill-opacity:1;fill-rule:nonzero;stroke:none;stroke-width:0.133333" />
      <path
         id="path1186"
         d="m 208.99733,123.00936 h -29.94 l -3.04134,-2.85334 35.836,-0.208 -2.85466,3.06134"
         style="fill:#bb501e;fill-opacity:1;fill-rule:nonzero;stroke:none;stroke-width:0.133333" />
      <path
         id="path1187"
         d="m 179.05733,152.94936 h 29.94 l 3.044,2.85333 h -36.02534 l 3.04134,-2.85333"
         style="fill:#bb501e;fill-opacity:1;fill-rule:nonzero;stroke:none;stroke-width:0.133333" />
      <path
         id="path1188"
         d="m 208.99733,152.94936 v -29.94 l 2.85466,-3.06134 0.18934,35.85467 -3.044,-2.85333"
         style="fill:#943e1c;fill-opacity:1;fill-rule:nonzero;stroke:none;stroke-width:0.133333" />
      <path
         id="path1189"
         d="m 179.05733,152.94936 v -29.94 l -3.04134,-2.85334 v 35.64667 l 3.04134,-2.85333"
         style="fill:#943e1c;fill-opacity:1;fill-rule:nonzero;stroke:none;stroke-width:0.133333" />
      <path
         id="path1190"
         d="m 179.05733,125.15736 h 29.94013 v -2.14688 h -29.94013 z"
         style="fill:#ec8614;fill-opacity:1;fill-rule:nonzero;stroke:none;stroke-width:0.133333" />
      <path
         id="path1191"
         d="m 212.04133,155.80269 h -36.02534 l 1.27467,-1.196 c 0.39733,0.0267 0.79867,0.0413 1.2,0.0413 h 32.31867 l 1.232,1.15467"
         style="fill:#de7419;fill-opacity:1;fill-rule:nonzero;stroke:none;stroke-width:0.133333" />
      <path
         id="path1192"
         d="m 210.48933,121.40936 h -33.13734 l -1.336,-1.25334 35.836,-0.208 -1.36266,1.46134"
         style="fill:#9a321d;fill-opacity:1;fill-rule:nonzero;stroke:none;stroke-width:0.133333" />
      <path
         id="path1193"
         d="m 226.47333,152.94936 h 29.94013 v -29.9396 h -29.94013 z"
         style="fill:#d2671b;fill-opacity:1;fill-rule:nonzero;stroke:none;stroke-width:0.133333" />
      <path
         id="path1194"
         d="m 256.41332,123.00936 h -29.93999 l -3.04267,-2.85334 35.83466,-0.208 -2.852,3.06134"
         style="fill:#bb501e;fill-opacity:1;fill-rule:nonzero;stroke:none;stroke-width:0.133333" />
      <path
         id="path1195"
         d="m 226.47333,152.94936 h 29.93999 l 3.04267,2.85333 h -36.02533 l 3.04267,-2.85333"
         style="fill:#bb501e;fill-opacity:1;fill-rule:nonzero;stroke:none;stroke-width:0.133333" />
      <path
         id="path1196"
         d="m 256.41332,152.94936 v -29.94 l 2.852,-3.06134 0.19067,35.85467 -3.04267,-2.85333"
         style="fill:#943e1c;fill-opacity:1;fill-rule:nonzero;stroke:none;stroke-width:0.133333" />
      <path
         id="path1197"
         d="m 226.47333,152.94936 v -29.94 l -3.04267,-2.85334 v 35.64667 l 3.04267,-2.85333"
         style="fill:#943e1c;fill-opacity:1;fill-rule:nonzero;stroke:none;stroke-width:0.133333" />
      <path
         id="path1198"
         d="m 226.47333,125.15736 h 29.94013 v -2.14688 h -29.94013 z"
         style="fill:#ec8614;fill-opacity:1;fill-rule:nonzero;stroke:none;stroke-width:0.133333" />
      <path
         id="path1199"
         d="m 259.45599,155.80269 h -36.02533 l 1.27467,-1.196 c 0.39733,0.0267 0.79866,0.0413 1.20133,0.0413 h 32.31733 l 1.232,1.15467"
         style="fill:#de7419;fill-opacity:1;fill-rule:nonzero;stroke:none;stroke-width:0.133333" />
      <path
         id="path1200"
         d="m 257.90532,121.40936 h -33.13866 l -1.336,-1.25334 35.83466,-0.208 -1.36133,1.46134"
         style="fill:#9a321d;fill-opacity:1;fill-rule:nonzero;stroke:none;stroke-width:0.133333" />
      <path
         id="path1201"
         d="m 179.05733,294.48802 h 29.94013 v -29.94013 h -29.94013 z"
         style="fill:#d2671b;fill-opacity:1;fill-rule:nonzero;stroke:none;stroke-width:0.133333" />
      <path
         id="path1202"
         d="m 208.99733,264.54802 h -29.94 l -3.04134,-2.85333 35.836,-0.20667 -2.85466,3.06"
         style="fill:#bb501e;fill-opacity:1;fill-rule:nonzero;stroke:none;stroke-width:0.133333" />
      <path
         id="path1203"
         d="m 179.05733,294.48802 h 29.94 l 3.044,2.85333 h -36.02534 l 3.04134,-2.85333"
         style="fill:#bb501e;fill-opacity:1;fill-rule:nonzero;stroke:none;stroke-width:0.133333" />
      <path
         id="path1204"
         d="m 208.99733,294.48802 v -29.94 l 2.85466,-3.06 0.18934,35.85333 -3.044,-2.85333"
         style="fill:#943e1c;fill-opacity:1;fill-rule:nonzero;stroke:none;stroke-width:0.133333" />
      <path
         id="path1205"
         d="m 179.05733,294.48802 v -29.94 l -3.04134,-2.85333 v 35.64666 l 3.04134,-2.85333"
         style="fill:#943e1c;fill-opacity:1;fill-rule:nonzero;stroke:none;stroke-width:0.133333" />
      <path
         id="path1206"
         d="m 179.05733,266.69469 h 29.94013 v -2.14688 h -29.94013 z"
         style="fill:#ec8614;fill-opacity:1;fill-rule:nonzero;stroke:none;stroke-width:0.133333" />
      <path
         id="path1207"
         d="m 212.04133,297.34135 h -36.02534 l 1.276,-1.196 c 0.396,0.0267 0.79734,0.0413 1.19867,0.0413 h 32.31867 l 0.42,0.39333 0.81066,0.76133"
         style="fill:#de7419;fill-opacity:1;fill-rule:nonzero;stroke:none;stroke-width:0.133333" />
      <path
         id="path1208"
         d="m 176.01599,297.34135 v 0 l 1.27467,-1.196 c 0,0 0,0 0.001,0 l -1.27466,1.196"
         style="fill:#c7671c;fill-opacity:1;fill-rule:nonzero;stroke:none;stroke-width:0.133333" />
      <path
         id="path1209"
         d="m 210.48933,262.94802 h -33.13734 l -1.336,-1.25333 35.836,-0.20667 -1.36266,1.46"
         style="fill:#9a321d;fill-opacity:1;fill-rule:nonzero;stroke:none;stroke-width:0.133333" />
      <path
         id="path1210"
         d="m 226.47333,294.48802 h 29.94013 v -29.94013 h -29.94013 z"
         style="fill:#d2671b;fill-opacity:1;fill-rule:nonzero;stroke:none;stroke-width:0.133333" />
      <path
         id="path1211"
         d="m 256.41332,264.54802 h -29.93999 l -3.04267,-2.85333 35.83466,-0.20667 -2.852,3.06"
         style="fill:#bb501e;fill-opacity:1;fill-rule:nonzero;stroke:none;stroke-width:0.133333" />
      <path
         id="path1212"
         d="m 226.47333,294.48802 h 29.93999 l 3.04267,2.85333 h -36.02533 l 3.04267,-2.85333"
         style="fill:#bb501e;fill-opacity:1;fill-rule:nonzero;stroke:none;stroke-width:0.133333" />
      <path
         id="path1213"
         d="m 256.41332,294.48802 v -29.94 l 2.852,-3.06 0.19067,35.85333 -3.04267,-2.85333"
         style="fill:#943e1c;fill-opacity:1;fill-rule:nonzero;stroke:none;stroke-width:0.133333" />
      <path
         id="path1214"
         d="m 226.47333,294.48802 v -29.94 l -3.04267,-2.85333 v 35.64666 l 3.04267,-2.85333"
         style="fill:#943e1c;fill-opacity:1;fill-rule:nonzero;stroke:none;stroke-width:0.133333" />
      <path
         id="path1215"
         d="m 226.47333,266.69469 h 29.94013 v -2.14688 h -29.94013 z"
         style="fill:#ec8614;fill-opacity:1;fill-rule:nonzero;stroke:none;stroke-width:0.133333" />
      <path
         id="path1216"
         d="m 259.45599,297.34135 h -36.02533 l 1.276,-1.196 c 0.39733,0.0267 0.79733,0.0413 1.2,0.0413 h 32.31733 l 0.42,0.39333 0.812,0.76133"
         style="fill:#de7419;fill-opacity:1;fill-rule:nonzero;stroke:none;stroke-width:0.133333" />
      <path
         id="path1217"
         d="m 223.43066,297.34135 v 0 l 1.27467,-1.196 c 0.001,0 0.001,0 0.001,0 l -1.276,1.196"
         style="fill:#c7671c;fill-opacity:1;fill-rule:nonzero;stroke:none;stroke-width:0.133333" />
      <path
         id="path1218"
         d="m 257.90532,262.94802 h -33.13866 l -1.336,-1.25333 35.83466,-0.20667 -1.36,1.46"
         style="fill:#9a321d;fill-opacity:1;fill-rule:nonzero;stroke:none;stroke-width:0.133333" />
      <path
         id="path1219"
         d="m 179.05733,244.45469 h 29.94013 v -71.12653 h -29.94013 z"
         style="fill:#d2671b;fill-opacity:1;fill-rule:nonzero;stroke:none;stroke-width:0.133333" />
      <path
         id="path1220"
         d="m 208.99733,173.32802 h -29.94 l -3.04134,-6.77866 35.836,-0.492 -2.85466,7.27066"
         style="fill:#bb501e;fill-opacity:1;fill-rule:nonzero;stroke:none;stroke-width:0.133333" />
      <path
         id="path1221"
         d="m 179.05733,244.45469 h 29.94 l 3.044,6.77866 h -36.02534 l 3.04134,-6.77866"
         style="fill:#bb501e;fill-opacity:1;fill-rule:nonzero;stroke:none;stroke-width:0.133333" />
      <path
         id="path1222"
         d="m 208.99733,244.45469 v -71.12667 l 2.85466,-7.27066 0.18934,85.17599 -3.044,-6.77866"
         style="fill:#943e1c;fill-opacity:1;fill-rule:nonzero;stroke:none;stroke-width:0.133333" />
      <path
         id="path1223"
         d="m 179.05733,244.45469 v -71.12667 l -3.04134,-6.77866 v 84.68399 l 3.04134,-6.77866"
         style="fill:#943e1c;fill-opacity:1;fill-rule:nonzero;stroke:none;stroke-width:0.133333" />
      <path
         id="path1224"
         d="m 179.05733,175.87869 h 29.94013 v -2.55052 h -29.94013 z"
         style="fill:#ec8614;fill-opacity:1;fill-rule:nonzero;stroke:none;stroke-width:0.133333" />
      <path
         id="path1225"
         d="m 212.04133,251.23335 h -36.02534 l 1.27467,-2.84133 c 0.39733,0.0627 0.79867,0.0987 1.2,0.0987 h 32.31867 l 1.232,2.74266"
         style="fill:#de7419;fill-opacity:1;fill-rule:nonzero;stroke:none;stroke-width:0.133333" />
      <path
         id="path1226"
         d="m 176.01599,251.23335 1.27467,-2.84133 v 0 l -1.27467,2.84133"
         style="fill:#c7671c;fill-opacity:1;fill-rule:nonzero;stroke:none;stroke-width:0.133333" />
      <path
         id="path1227"
         d="m 210.48933,169.52669 h -33.13734 l -1.336,-2.97733 35.836,-0.492 -1.36266,3.46933"
         style="fill:#9a321d;fill-opacity:1;fill-rule:nonzero;stroke:none;stroke-width:0.133333" />
      <path
         id="path1228"
         d="m 177.35199,169.52669 v 0 l -1.336,-2.97733 1.336,2.97733"
         style="fill:#7a2519;fill-opacity:1;fill-rule:nonzero;stroke:none;stroke-width:0.133333" />
      <path
         id="path1229"
         d="m 226.47333,244.45469 h 29.94013 v -71.12653 h -29.94013 z"
         style="fill:#d2671b;fill-opacity:1;fill-rule:nonzero;stroke:none;stroke-width:0.133333" />
      <path
         id="path1230"
         d="m 256.41332,173.32802 h -29.93999 l -3.04267,-6.77866 35.83466,-0.492 -2.852,7.27066"
         style="fill:#bb501e;fill-opacity:1;fill-rule:nonzero;stroke:none;stroke-width:0.133333" />
      <path
         id="path1231"
         d="m 226.47333,244.45469 h 29.93999 l 3.04267,6.77866 h -36.02533 l 3.04267,-6.77866"
         style="fill:#bb501e;fill-opacity:1;fill-rule:nonzero;stroke:none;stroke-width:0.133333" />
      <path
         id="path1232"
         d="m 256.41332,244.45469 v -71.12667 l 2.852,-7.27066 0.19067,85.17599 -3.04267,-6.77866"
         style="fill:#943e1c;fill-opacity:1;fill-rule:nonzero;stroke:none;stroke-width:0.133333" />
      <path
         id="path1233"
         d="m 226.47333,244.45469 v -71.12667 l -3.04267,-6.77866 v 84.68399 l 3.04267,-6.77866"
         style="fill:#943e1c;fill-opacity:1;fill-rule:nonzero;stroke:none;stroke-width:0.133333" />
      <path
         id="path1234"
         d="m 226.47333,175.87869 h 29.94013 v -2.55052 h -29.94013 z"
         style="fill:#ec8614;fill-opacity:1;fill-rule:nonzero;stroke:none;stroke-width:0.133333" />
      <path
         id="path1235"
         d="m 259.45599,251.23335 h -36.02533 l 1.27467,-2.84133 c 0.39733,0.0627 0.79866,0.0987 1.20133,0.0987 h 32.31733 l 1.232,2.74266"
         style="fill:#de7419;fill-opacity:1;fill-rule:nonzero;stroke:none;stroke-width:0.133333" />
      <path
         id="path1236"
         d="m 257.90532,169.52669 h -33.13866 l -1.336,-2.97733 35.83466,-0.492 -1.36133,3.46933"
         style="fill:#9a321d;fill-opacity:1;fill-rule:nonzero;stroke:none;stroke-width:0.133333" />
      <path
         id="path1237"
         d="m 233.57466,260.00402 h -34.452 v -1.89467 h 34.452 v 1.89467"
         style="fill:#b8481f;fill-opacity:1;fill-rule:nonzero;stroke:none;stroke-width:0.133333" />
      <path
         id="path1238"
         d="m 199.12266,258.10935 h 34.4516 v -5.35885 h -34.4516 z"
         style="fill:#cecaea;fill-opacity:1;fill-rule:nonzero;stroke:none;stroke-width:0.133333" />
      <path
         id="path1239"
         d="m 200.16266,257.35069 h 32.588 v -3.79063 h -32.588 z"
         style="fill:#e3dff2;fill-opacity:1;fill-rule:nonzero;stroke:none;stroke-width:0.133333" />
      <path
         id="path1240"
         d="m 204.15599,258.10935 h -3.39466 l 0.75866,-0.75866 h 3.39467 l -0.75867,0.75866 m 4.548,-4.54933 h -3.39466 l 0.80933,-0.80933 h 3.39467 l -0.80934,0.80933"
         style="fill:#e3e1f3;fill-opacity:1;fill-rule:nonzero;stroke:none;stroke-width:0.133333" />
      <path
         id="path1241"
         d="m 204.91466,257.35069 h -3.39467 l 3.78934,-3.79067 h 3.39466 l -3.78933,3.79067"
         style="fill:#efeef8;fill-opacity:1;fill-rule:nonzero;stroke:none;stroke-width:0.133333" />
      <path
         id="path1242"
         d="m 219.13599,258.10935 h -3.39466 l 0.75866,-0.75866 h 3.39467 l -0.75867,0.75866 m 4.54934,-4.54933 h -3.39467 l 0.80933,-0.80933 h 3.39467 l -0.80933,0.80933"
         style="fill:#c1bce4;fill-opacity:1;fill-rule:nonzero;stroke:none;stroke-width:0.133333" />
      <path
         id="path1243"
         d="m 219.89466,257.35069 h -3.39467 l 3.79067,-3.79067 h 3.39467 l -3.79067,3.79067"
         style="fill:#d5cfec;fill-opacity:1;fill-rule:nonzero;stroke:none;stroke-width:0.133333" />
      <path
         id="path1244"
         d="m 227.76266,258.10935 h -3.39467 l 0.75867,-0.75866 h 3.39466 l -0.75866,0.75866 m 4.54933,-4.54933 h -3.396 l 0.80933,-0.80933 h 3.396 l -0.80933,0.80933"
         style="fill:#e3e1f3;fill-opacity:1;fill-rule:nonzero;stroke:none;stroke-width:0.133333" />
      <path
         id="path1245"
         d="m 228.52132,257.35069 h -3.39466 l 3.78933,-3.79067 h 3.396 l -3.79067,3.79067"
         style="fill:#efeef8;fill-opacity:1;fill-rule:nonzero;stroke:none;stroke-width:0.133333" />
      <path
         id="path1246"
         d="m 206.63199,258.10935 h -1.42133 l 0.76,-0.75866 h 1.42 l -0.75867,0.75866 m 4.54934,-4.54933 h -1.42 l 0.80933,-0.80933 h 1.42 l -0.80933,0.80933"
         style="fill:#c1bce4;fill-opacity:1;fill-rule:nonzero;stroke:none;stroke-width:0.133333" />
      <path
         id="path1247"
         d="m 207.39066,257.35069 h -1.42 l 3.79067,-3.79067 h 1.42 l -3.79067,3.79067"
         style="fill:#d5cfec;fill-opacity:1;fill-rule:nonzero;stroke:none;stroke-width:0.133333" />
    </g>
  </g>
</svg>
