<?xml version="1.0" encoding="UTF-8" standalone="no"?>
<!-- Created with Inkscape (http://www.inkscape.org/) -->

<svg
   version="1.1"
   id="svg1"
   width="120.57867"
   height="254.62132"
   viewBox="0 0 120.57867 254.62132"
   xmlns="http://www.w3.org/2000/svg"
   xmlns:svg="http://www.w3.org/2000/svg">
  <defs
     id="defs1" />
  <g
     id="g1"
     transform="translate(-572.50663,-53.225354)">
    <g
       id="g1125">
      <path
         id="path291"
         d="M 693.08531,307.84669 H 572.50665 V 113.04402 c 0,-33.037334 26.78267,-59.818667 59.81866,-59.818667 h 0.94 c 33.03734,0 59.82,26.781333 59.82,59.818667 v 194.80267"
         style="fill:#fabfa5;fill-opacity:1;fill-rule:nonzero;stroke:none;stroke-width:0.133333" />
      <path
         id="path292"
         d="m 578.42798,301.92402 h 108.73467 v -188.88 c 0,-29.720001 -24.17734,-53.898667 -53.896,-53.898667 h -0.94134 c -29.71999,0 -53.89733,24.178666 -53.89733,53.898667 v 188.88 m 110.70933,1.97467 H 576.45332 V 113.04402 c 0,-30.808001 25.06533,-55.872 55.87199,-55.872 h 0.94134 c 30.80666,0 55.87066,25.063999 55.87066,55.872 v 190.85467"
         style="fill:#fde7de;fill-opacity:1;fill-rule:nonzero;stroke:none;stroke-width:0.133333" />
      <path
         id="path293"
         d="m 575.95865,307.84669 h 114.1172 v -6.875 h -114.1172 z"
         style="fill:#cecaea;fill-opacity:1;fill-rule:nonzero;stroke:none;stroke-width:0.133333" />
      <path
         id="path294"
         d="m 575.95865,307.84669 h 114.1172 v -6.875 h -114.1172 z"
         style="fill:#cecaea;fill-opacity:1;fill-rule:nonzero;stroke:none;stroke-width:0.133333" />
      <path
         id="path295"
         d="M 685.26398,104.86269 H 580.32665 c 0.47467,-2.03334 1.06533,-4.016 1.768,-5.950673 0.116,-0.32667 0.23467,-0.652 0.35333,-0.96667 3.28667,-8.586662 8.71467,-16.126661 15.61334,-21.949328 0.25733,-0.217333 0.51333,-0.434667 0.78,-0.641333 6.03866,-4.925333 13.16533,-8.557333 20.972,-10.481333 0.316,-0.07867 0.64133,-0.157334 0.96666,-0.226667 3.208,-0.74 6.51334,-1.185333 9.90933,-1.302667 0.7,-0.04 1.40134,-0.04933 2.112,-0.04933 0.828,0 1.64667,0.01867 2.45734,0.05867 1.24266,0.04933 2.476,0.148 3.69066,0.286666 1.28267,0.148 2.56534,0.334667 3.82,0.572 0.32534,0.06 0.65067,0.128 0.976,0.197334 1.56934,0.325333 3.11867,0.710666 4.63867,1.174666 3.652,1.096 7.14533,2.576 10.42133,4.392 2.03334,1.124 3.988,2.378667 5.852,3.750667 0.268,0.186666 0.53334,0.384 0.8,0.592 1.056,0.809333 2.08267,1.648 3.08,2.545333 5.52534,4.894667 10.036,10.925333 13.184,17.716 0.13867,0.305333 0.28667,0.621333 0.41467,0.926666 1.32267,2.990666 2.368,6.118669 3.128,9.356009"
         style="fill:#1e5db2;fill-opacity:1;fill-rule:nonzero;stroke:none;stroke-width:0.133333" />
      <path
         id="path296"
         d="m 675.61198,104.86269 h -85.632 c 4.54934,-19.442671 21.988,-33.929338 42.82133,-33.929338 20.82267,0 38.26134,14.486667 42.81067,33.929338"
         style="fill:#3a7bc7;fill-opacity:1;fill-rule:nonzero;stroke:none;stroke-width:0.133333" />
      <path
         id="path297"
         d="m 632.80131,87.404019 c -7.02799,0 -12.73199,5.714666 -12.73199,12.732001 0,1.668 0.32533,3.26667 0.91866,4.72667 h 1.05467 c -0.63067,-1.45067 -0.98667,-3.04934 -0.98667,-4.72667 0,-6.474668 5.26934,-11.745335 11.74533,-11.745335 6.47334,0 11.74267,5.270667 11.74267,11.745335 0,1.67733 -0.35467,3.276 -0.98667,4.72667 h 1.056 c 0.592,-1.46 0.91867,-3.05867 0.91867,-4.72667 0,-7.017335 -5.71333,-12.732001 -12.73067,-12.732001"
         style="fill:#6dabe1;fill-opacity:1;fill-rule:nonzero;stroke:none;stroke-width:0.133333" />
      <path
         id="path298"
         d="m 621.02665,102.60269 -0.72933,-0.0693 -38.20267,-3.621343 c 0.116,-0.32666 0.23467,-0.652 0.35333,-0.96666 l 37.70134,3.581333 0.66133,0.0587 0.0187,0.23733 c 0.0587,0.208 0.108,0.40534 0.15866,0.60267 l 0.0387,0.17733"
         style="fill:#6dabe1;fill-opacity:1;fill-rule:nonzero;stroke:none;stroke-width:0.133333" />
      <path
         id="path299"
         d="m 622.55598,94.154685 c -0.18666,0.285334 -0.35466,0.572 -0.50266,0.869334 l -0.66134,-0.524 -23.33066,-18.504 c 0.25733,-0.217333 0.51333,-0.434667 0.78,-0.641333 l 23.03333,18.257333 0.68133,0.542666"
         style="fill:#6dabe1;fill-opacity:1;fill-rule:nonzero;stroke:none;stroke-width:0.133333" />
      <path
         id="path300"
         d="m 628.85331,88.657352 c -0.32533,0.08 -0.63199,0.188 -0.93733,0.306667 l -0.168,-0.504 -7.93466,-23.586666 c 0.316,-0.07867 0.64133,-0.157334 0.96666,-0.226667 l 7.88533,23.447999 0.188,0.562667"
         style="fill:#6dabe1;fill-opacity:1;fill-rule:nonzero;stroke:none;stroke-width:0.133333" />
      <path
         id="path301"
         d="m 643.74531,64.409353 -6.15733,23.931999 -0.11867,0.464 c -0.28666,-0.07867 -0.56266,-0.157333 -0.84933,-0.206667 l -0.10933,-0.03867 0.148,-0.553334 6.11066,-23.794666 c 0.32534,0.06 0.65067,0.128 0.976,0.197334"
         style="fill:#6dabe1;fill-opacity:1;fill-rule:nonzero;stroke:none;stroke-width:0.133333" />
      <path
         id="path302"
         d="m 665.45731,74.318686 -21.47466,19.737333 -0.32667,0.296 c -0.0987,-0.168 -0.18667,-0.336 -0.29467,-0.493334 -0.06,-0.137333 -0.13866,-0.256 -0.208,-0.385333 l 0.30534,-0.285333 21.19866,-19.461333 c 0.268,0.186666 0.53334,0.384 0.8,0.592"
         style="fill:#6dabe1;fill-opacity:1;fill-rule:nonzero;stroke:none;stroke-width:0.133333" />
      <path
         id="path303"
         d="m 682.13598,95.506685 -36.704,6.197335 -0.77867,0.12933 c 0.0787,-0.34533 0.13867,-0.68133 0.17734,-1.02666 l 0.68133,-0.11867 36.20933,-6.108001 c 0.13867,0.305333 0.28667,0.621333 0.41467,0.926666"
         style="fill:#6dabe1;fill-opacity:1;fill-rule:nonzero;stroke:none;stroke-width:0.133333" />
      <path
         id="path304"
         d="m 641.59998,103.80136 -15.228,-1.39201 12.38933,-12.389331 c 3.45867,2.046666 5.78267,5.816 5.78267,10.116001 0,0.24933 -0.008,0.49733 -0.0227,0.744 l -2.92133,2.92134 m 3.92933,-3.929343 c -0.044,-2.10133 -0.59866,-4.081332 -1.54666,-5.817332 l 15.412,-14.163999 c 1.152,0.877333 2.26133,1.812 3.32,2.796 l -17.18534,17.185331 m -2.068,-6.686665 c -1.02533,-1.568 -2.388,-2.897333 -3.98266,-3.884 l 13.48133,-13.481333 c 1.96933,1.018667 3.85067,2.181333 5.632,3.474667 l -15.13067,13.890666"
         style="fill:#5daae2;fill-opacity:1;fill-rule:nonzero;stroke:none;stroke-width:0.133333" />
      <path
         id="path305"
         d="m 644.52131,100.88002 c 0.0147,-0.24667 0.0227,-0.49467 0.0227,-0.744 0,-4.300001 -2.324,-8.069335 -5.78267,-10.116001 l 0.71734,-0.718667 c 1.59466,0.986667 2.95733,2.316 3.98266,3.884 l -0.003,0.0027 -0.30534,0.285333 c 0.0693,0.129333 0.148,0.248 0.208,0.385333 0.108,0.157334 0.196,0.325334 0.29467,0.493334 l 0.32667,-0.296 c 0.948,1.734666 1.50266,3.714665 1.54666,5.815995 l -1.008,1.008003"
         style="fill:#88cdf1;fill-opacity:1;fill-rule:nonzero;stroke:none;stroke-width:0.133333" />
      <path
         id="path306"
         d="m 643.65598,94.352019 c -0.0987,-0.168 -0.18667,-0.336 -0.29467,-0.493334 -0.06,-0.137333 -0.13866,-0.256 -0.208,-0.385333 l 0.30534,-0.285333 0.003,-0.0027 15.13067,-13.890666 c 0.27067,0.196 0.536,0.393333 0.80267,0.596 l -15.412,14.165333 -0.32667,0.296"
         style="fill:#88cdf1;fill-opacity:1;fill-rule:nonzero;stroke:none;stroke-width:0.133333" />
      <path
         id="path307"
         d="m 609.10398,104.86269 h -11.37866 l 4.08266,-4.08134 10.39334,0.98534 -3.09734,3.096 m 4.00534,-4.00534 -10.392,-0.986663 11.256,-11.254668 6.34533,5.033333 -7.20933,7.207998 m 7.91866,-7.917331 -6.348,-5.032 9.64,-9.638667 2.864,8.514667 -6.156,6.156 m 6.93467,-6.934667 -2.864,-8.516 6.54266,-6.541333 c 0.38534,-0.0093 0.772,-0.01467 1.16,-0.01467 2.75067,0 5.44267,0.252 8.052,0.736 l -0.49866,1.944 -12.392,12.392"
         style="fill:#5daae2;fill-opacity:1;fill-rule:nonzero;stroke:none;stroke-width:0.133333" />
      <path
         id="path308"
         d="m 612.20132,101.76669 -10.39334,-0.98534 0.90934,-0.910663 10.392,0.986663 -0.908,0.90934"
         style="fill:#88cdf1;fill-opacity:1;fill-rule:nonzero;stroke:none;stroke-width:0.133333" />
      <path
         id="path309"
         d="m 620.31865,93.649352 -6.34533,-5.033333 0.70666,-0.708 6.348,5.032 -0.70933,0.709333"
         style="fill:#88cdf1;fill-opacity:1;fill-rule:nonzero;stroke:none;stroke-width:0.133333" />
      <path
         id="path310"
         d="m 627.18398,86.784019 -2.864,-8.514667 0.77867,-0.78 2.864,8.516 -0.77867,0.778667"
         style="fill:#88cdf1;fill-opacity:1;fill-rule:nonzero;stroke:none;stroke-width:0.133333" />
      <path
         id="path311"
         d="m 641.73065,72.237352 0.0973,-0.376 c 0.0773,0.016 0.152,0.032 0.23067,0.048 l -0.328,0.328"
         style="fill:#5daae2;fill-opacity:1;fill-rule:nonzero;stroke:none;stroke-width:0.133333" />
      <path
         id="path312"
         d="m 640.35465,73.613352 0.49866,-1.944 c 0.32667,0.06 0.652,0.124 0.97467,0.192 l -0.0973,0.376 -1.376,1.376"
         style="fill:#88cdf1;fill-opacity:1;fill-rule:nonzero;stroke:none;stroke-width:0.133333" />
      <path
         id="path313"
         d="m 593.74932,104.86269 h -3.76934 c 0.0853,-0.36533 0.17467,-0.728 0.26934,-1.09067 l 3.73466,-3.73333 4.192,0.39733 -4.42666,4.42667 m 5.33733,-5.337343 -4.19067,-0.39866 14.30267,-14.298668 2.556,2.029333 -12.668,12.667995 m 13.37467,-13.375995 -2.55734,-2.026666 11.77467,-11.770667 c 0.19867,-0.052 0.39867,-0.102667 0.59867,-0.152 l 1.04133,3.093333 -10.85733,10.856 m 11.63733,-11.636 -0.85467,-2.538666 c 1.34534,-0.298667 2.712,-0.534667 4.1,-0.706667 l -3.24533,3.245333"
         style="fill:#5daae2;fill-opacity:1;fill-rule:nonzero;stroke:none;stroke-width:0.133333" />
      <path
         id="path314"
         d="m 598.17598,100.43602 -4.192,-0.39733 0.912,-0.912003 4.19067,0.39866 -0.91067,0.910673"
         style="fill:#88cdf1;fill-opacity:1;fill-rule:nonzero;stroke:none;stroke-width:0.133333" />
      <path
         id="path315"
         d="m 611.75465,86.857352 -2.556,-2.029333 0.70533,-0.705333 2.55734,2.026666 -0.70667,0.708"
         style="fill:#88cdf1;fill-opacity:1;fill-rule:nonzero;stroke:none;stroke-width:0.133333" />
      <path
         id="path316"
         d="m 623.31865,75.293352 -1.04133,-3.093333 c 0.32133,-0.07867 0.64266,-0.153333 0.96666,-0.225333 l 0.85467,2.538666 -0.78,0.78"
         style="fill:#88cdf1;fill-opacity:1;fill-rule:nonzero;stroke:none;stroke-width:0.133333" />
      <path
         id="path317"
         d="m 685.26398,104.86269 h -9.652 c -0.63333,-2.708 -1.51733,-5.320003 -2.62533,-7.810673 l 9.14933,-1.545332 v 0 c 1.32267,2.990662 2.368,6.118665 3.128,9.356005"
         style="fill:#254481;fill-opacity:1;fill-rule:nonzero;stroke:none;stroke-width:0.133333" />
      <path
         id="path318"
         d="m 672.56131,96.125352 c -2.41066,-5.093333 -5.768,-9.648 -9.84666,-13.438666 l 5.82266,-5.822667 v 0 c 5.52534,4.894667 10.036,10.925333 13.184,17.716 l -9.16,1.545333"
         style="fill:#254481;fill-opacity:1;fill-rule:nonzero;stroke:none;stroke-width:0.133333" />
      <path
         id="path319"
         d="m 652.95998,75.820019 c -3.39867,-1.757333 -7.05867,-3.085333 -10.90133,-3.910667 l 6.32533,-6.325333 v 0 c 3.652,1.096 7.14533,2.576 10.42133,4.392 l -5.84533,5.844"
         style="fill:#254481;fill-opacity:1;fill-rule:nonzero;stroke:none;stroke-width:0.133333" />
      <path
         id="path320"
         d="m 672.98665,97.052017 c -0.13867,-0.31067 -0.28,-0.619998 -0.42534,-0.926665 v 0 l 9.16,-1.545333 v 0 c 0.13867,0.305333 0.28667,0.621333 0.41467,0.926666 l -9.14933,1.545332"
         style="fill:#3f73c2;fill-opacity:1;fill-rule:nonzero;stroke:none;stroke-width:0.133333" />
      <path
         id="path321"
         d="m 662.71465,82.686686 c -1.05867,-0.984 -2.168,-1.918667 -3.32,-2.796 l 6.06266,-5.572 v 0 c 1.056,0.809333 2.08267,1.648 3.08,2.545333 l -5.82266,5.822667"
         style="fill:#2a65b8;fill-opacity:1;fill-rule:nonzero;stroke:none;stroke-width:0.133333" />
      <path
         id="path322"
         d="m 658.59198,79.294686 c -1.78133,-1.293334 -3.66267,-2.456 -5.632,-3.474667 l 5.84533,-5.844 v 0 c 2.03334,1.124 3.988,2.378667 5.852,3.750667 l -6.06533,5.568"
         style="fill:#2a65b8;fill-opacity:1;fill-rule:nonzero;stroke:none;stroke-width:0.133333" />
      <path
         id="path323"
         d="m 659.39465,79.890686 c -0.26667,-0.202667 -0.532,-0.4 -0.80267,-0.596 v 0 l 6.06533,-5.568 v 0 c 0.268,0.186666 0.53334,0.384 0.8,0.592 l -6.06266,5.572"
         style="fill:#4b87ce;fill-opacity:1;fill-rule:nonzero;stroke:none;stroke-width:0.133333" />
      <path
         id="path324"
         d="m 589.15865,104.86269 h -8.832 c 0.47467,-2.03334 1.06533,-4.016 1.768,-5.950673 v 0 l 9.39733,0.89067 c -0.47466,1.294663 -0.89066,2.621333 -1.24266,3.969333 l -1.09067,1.09067 m 2.69867,-6.024003 -9.40934,-0.89334 c 3.28667,-8.586662 8.71467,-16.126661 15.61334,-21.949328 v 0 l 6.53066,5.178667 c -5.60133,4.690666 -10.01733,10.750666 -12.73466,17.664001 m 13.51866,-18.305335 -6.53466,-5.178666 c 6.03866,-4.925333 13.16533,-8.557333 20.972,-10.481333 v 0 l 2.352,6.991999 -0.48667,0.486667 c -6.03733,1.573333 -11.56933,4.398667 -16.30267,8.181333 m 17.56934,-9.448 -2.16534,-6.438666 c 3.208,-0.74 6.51334,-1.185333 9.90933,-1.302667 l -7.74399,7.741333"
         style="fill:#254481;fill-opacity:1;fill-rule:nonzero;stroke:none;stroke-width:0.133333" />
      <path
         id="path325"
         d="m 591.49198,99.802687 v 0 l -9.39733,-0.89067 c 0.116,-0.32667 0.23467,-0.652 0.35333,-0.96667 v 0 l 9.40934,0.89334 c -0.12667,0.32 -0.248,0.64 -0.36534,0.964"
         style="fill:#3f73c2;fill-opacity:1;fill-rule:nonzero;stroke:none;stroke-width:0.133333" />
      <path
         id="path326"
         d="m 604.59198,81.174686 v 0 l -6.53066,-5.178667 c 0.25733,-0.217333 0.51333,-0.434667 0.78,-0.641333 v 0 l 6.53466,5.178666 c -0.264,0.210667 -0.52666,0.425334 -0.784,0.641334"
         style="fill:#3f73c2;fill-opacity:1;fill-rule:nonzero;stroke:none;stroke-width:0.133333" />
      <path
         id="path327"
         d="m 622.16532,71.865352 -2.352,-6.991999 c 0.316,-0.07867 0.64133,-0.157334 0.96666,-0.226667 v 0 l 2.16534,6.438666 -0.78,0.78"
         style="fill:#3f73c2;fill-opacity:1;fill-rule:nonzero;stroke:none;stroke-width:0.133333" />
      <path
         id="path328"
         d="m 627.34398,71.268019 7.91467,-7.914666 v 0 c 1.24266,0.04933 2.476,0.148 3.69066,0.286666 l -7.308,7.308 c -1.45066,0.03733 -2.88533,0.145333 -4.29733,0.32"
         style="fill:#254481;fill-opacity:1;fill-rule:nonzero;stroke:none;stroke-width:0.133333" />
      <path
         id="path329"
         d="m 642.05865,71.909352 c -0.0787,-0.016 -0.15334,-0.032 -0.23067,-0.048 l 1.91733,-7.451999 v 0 c 1.56934,0.325333 3.11867,0.710666 4.63867,1.174666 l -6.32533,6.325333"
         style="fill:#2a65b8;fill-opacity:1;fill-rule:nonzero;stroke:none;stroke-width:0.133333" />
      <path
         id="path330"
         d="m 640.85331,71.669352 c -2.60933,-0.484 -5.30133,-0.736 -8.052,-0.736 -0.388,0 -0.77466,0.0053 -1.16,0.01467 l 7.308,-7.308 v 0 c 1.28267,0.148 2.56534,0.334667 3.82,0.572 l -1.916,7.457333"
         style="fill:#2a65b8;fill-opacity:1;fill-rule:nonzero;stroke:none;stroke-width:0.133333" />
      <path
         id="path331"
         d="m 641.82798,71.861352 c -0.32267,-0.068 -0.648,-0.132 -0.97467,-0.192 v 0 l 1.916,-7.457333 v 0 c 0.32534,0.06 0.65067,0.128 0.976,0.197334 l -1.91733,7.451999"
         style="fill:#4b87ce;fill-opacity:1;fill-rule:nonzero;stroke:none;stroke-width:0.133333" />
      <path
         id="path332"
         d="m 589.97998,104.86269 h -0.82133 l 1.09067,-1.09067 c -0.0947,0.36267 -0.184,0.72534 -0.26934,1.09067"
         style="fill:#2a65b8;fill-opacity:1;fill-rule:nonzero;stroke:none;stroke-width:0.133333" />
      <path
         id="path333"
         d="m 621.67865,72.352019 0.48667,-0.486667 0.112,0.334667 c -0.2,0.04933 -0.4,0.1 -0.59867,0.152 m 1.56533,-0.377333 -0.29866,-0.889334 7.74399,-7.741333 v 0 c 0.7,-0.04 1.40134,-0.04933 2.112,-0.04933 0.828,0 1.64667,0.01867 2.45734,0.05867 l -7.91467,7.914666 c -1.388,0.172 -2.75466,0.408 -4.1,0.706667"
         style="fill:#2a65b8;fill-opacity:1;fill-rule:nonzero;stroke:none;stroke-width:0.133333" />
      <path
         id="path334"
         d="m 622.27732,72.200019 v 0 l -0.112,-0.334667 0.78,-0.78 0.29866,0.889334 c -0.324,0.072 -0.64533,0.146666 -0.96666,0.225333"
         style="fill:#4b87ce;fill-opacity:1;fill-rule:nonzero;stroke:none;stroke-width:0.133333" />
      <path
         id="path335"
         d="m 580.07598,303.73069 h 105.43853 v -195.916 H 580.07598 Z"
         style="fill:#0e1423;fill-opacity:1;fill-rule:nonzero;stroke:none;stroke-width:0.133333" />
      <path
         id="path336"
         d="m 685.51465,303.73069 -65.44533,1.264 V 101.83335 l 65.44533,5.98134 v 195.916"
         style="fill:#d2671b;fill-opacity:1;fill-rule:nonzero;stroke:none;stroke-width:0.133333" />
      <path
         id="path337"
         d="m 649.68798,150.58802 -18.84933,-1.24133 v -30.86533 l 18.84933,1.56133 v 30.54533"
         style="fill:#d2671b;fill-opacity:1;fill-rule:nonzero;stroke:none;stroke-width:0.133333" />
      <path
         id="path338"
         d="m 649.68798,120.04269 -18.84933,-1.56133 -1.93734,-3.10534 22.56267,1.69334 -1.776,2.97333"
         style="fill:#bb501e;fill-opacity:1;fill-rule:nonzero;stroke:none;stroke-width:0.133333" />
      <path
         id="path339"
         d="m 630.83865,149.34669 18.84933,1.24133 1.89467,3.03334 -22.68134,-1.45867 1.93734,-2.816"
         style="fill:#bb501e;fill-opacity:1;fill-rule:nonzero;stroke:none;stroke-width:0.133333" />
      <path
         id="path340"
         d="m 649.68798,150.58802 v -30.54533 l 1.776,-2.97333 0.11867,36.552 -1.89467,-3.03334"
         style="fill:#943e1c;fill-opacity:1;fill-rule:nonzero;stroke:none;stroke-width:0.133333" />
      <path
         id="path341"
         d="m 630.83865,149.34669 v -30.86533 l -1.93734,-3.10534 v 36.78667 l 1.93734,-2.816"
         style="fill:#943e1c;fill-opacity:1;fill-rule:nonzero;stroke:none;stroke-width:0.133333" />
      <path
         id="path342"
         d="m 649.68798,122.23336 -18.84933,-1.53867 v -2.21333 l 18.84933,1.56133 v 2.19067"
         style="fill:#ec8614;fill-opacity:1;fill-rule:nonzero;stroke:none;stroke-width:0.133333" />
      <path
         id="path343"
         d="m 651.58265,153.62136 v 0 l -22.68134,-1.45867 0.19067,-0.276 0.62267,-0.90533 c 0.25333,0.044 0.508,0.076 0.76533,0.092 l 20.33467,1.32133 0.768,1.22667"
         style="fill:#de7419;fill-opacity:1;fill-rule:nonzero;stroke:none;stroke-width:0.133333" />
      <path
         id="path344"
         d="m 628.90131,152.16269 v 0 l 0.19067,-0.276 -0.19067,0.276"
         style="fill:#c7671c;fill-opacity:1;fill-rule:nonzero;stroke:none;stroke-width:0.133333" />
      <path
         id="path345"
         d="m 650.61731,118.48802 -20.864,-1.748 -0.852,-1.364 22.56267,1.69334 -0.84667,1.41866"
         style="fill:#9a321d;fill-opacity:1;fill-rule:nonzero;stroke:none;stroke-width:0.133333" />
      <path
         id="path346"
         d="m 650.61731,118.48802 v 0 l 0.84667,-1.41866 -0.84667,1.41866"
         style="fill:#7a2519;fill-opacity:1;fill-rule:nonzero;stroke:none;stroke-width:0.133333" />
      <path
         id="path347"
         d="m 629.75331,116.74002 v 0 l -0.852,-1.364 0.852,1.364"
         style="fill:#7a2519;fill-opacity:1;fill-rule:nonzero;stroke:none;stroke-width:0.133333" />
      <path
         id="path348"
         d="m 678.75465,152.50402 -18.244,-1.20266 v -30.36267 l 18.244,1.51067 v 30.05466"
         style="fill:#d2671b;fill-opacity:1;fill-rule:nonzero;stroke:none;stroke-width:0.133333" />
      <path
         id="path349"
         d="m 678.75465,122.44936 -18.244,-1.51067 -1.87467,-3.052 21.83733,1.636 -1.71866,2.92667"
         style="fill:#bb501e;fill-opacity:1;fill-rule:nonzero;stroke:none;stroke-width:0.133333" />
      <path
         id="path350"
         d="m 660.51065,151.30136 18.244,1.20266 1.83333,2.98267 -21.952,-1.412 1.87467,-2.77333"
         style="fill:#bb501e;fill-opacity:1;fill-rule:nonzero;stroke:none;stroke-width:0.133333" />
      <path
         id="path351"
         d="m 678.75465,152.50402 v -30.05466 l 1.71866,-2.92667 0.11467,35.964 -1.83333,-2.98267"
         style="fill:#943e1c;fill-opacity:1;fill-rule:nonzero;stroke:none;stroke-width:0.133333" />
      <path
         id="path352"
         d="m 660.51065,151.30136 v -30.36267 l -1.87467,-3.052 v 36.188 l 1.87467,-2.77333"
         style="fill:#943e1c;fill-opacity:1;fill-rule:nonzero;stroke:none;stroke-width:0.133333" />
      <path
         id="path353"
         d="m 667.68398,123.70136 -7.17333,-0.58534 v -2.17733 l 7.17333,0.59333 v 2.16934"
         style="fill:#ec8614;fill-opacity:1;fill-rule:nonzero;stroke:none;stroke-width:0.133333" />
      <path
         id="path354"
         d="m 667.68398,154.65736 -9.048,-0.58267 0.78667,-1.16267 c 0.244,0.0427 0.49066,0.0733 0.73866,0.0893 l 7.52267,0.488 v 1.168"
         style="fill:#de7419;fill-opacity:1;fill-rule:nonzero;stroke:none;stroke-width:0.133333" />
      <path
         id="path355"
         d="m 658.63598,154.07469 0.78667,-1.16267 v 0 l -0.78667,1.16267"
         style="fill:#c7671c;fill-opacity:1;fill-rule:nonzero;stroke:none;stroke-width:0.133333" />
      <path
         id="path356"
         d="m 667.68398,118.56402 -9.048,-0.67733 v -0.001 l 9.048,0.67866 v 0"
         style="fill:#af421f;fill-opacity:1;fill-rule:nonzero;stroke:none;stroke-width:0.133333" />
      <path
         id="path357"
         d="m 667.68398,119.91602 -8.224,-0.688 -0.824,-1.34133 9.048,0.67733 v 1.352"
         style="fill:#9a321d;fill-opacity:1;fill-rule:nonzero;stroke:none;stroke-width:0.133333" />
      <path
         id="path358"
         d="m 649.68798,294.99202 -18.84933,0.26533 v -30.86533 l 18.84933,0.0533 v 30.54667"
         style="fill:#d2671b;fill-opacity:1;fill-rule:nonzero;stroke:none;stroke-width:0.133333" />
      <path
         id="path359"
         d="m 649.68798,264.44535 -18.84933,-0.0533 -1.93734,-2.94933 22.56267,-0.11067 -1.776,3.11333"
         style="fill:#bb501e;fill-opacity:1;fill-rule:nonzero;stroke:none;stroke-width:0.133333" />
      <path
         id="path360"
         d="m 630.83865,295.25735 18.84933,-0.26533 1.89467,2.88133 -22.68134,0.356 1.93734,-2.972"
         style="fill:#bb501e;fill-opacity:1;fill-rule:nonzero;stroke:none;stroke-width:0.133333" />
      <path
         id="path361"
         d="m 649.68798,294.99202 v -30.54667 l 1.776,-3.11333 0.11867,36.54133 -1.89467,-2.88133"
         style="fill:#943e1c;fill-opacity:1;fill-rule:nonzero;stroke:none;stroke-width:0.133333" />
      <path
         id="path362"
         d="m 630.83865,295.25735 v -30.86533 l -1.93734,-2.94933 v 36.78666 l 1.93734,-2.972"
         style="fill:#943e1c;fill-opacity:1;fill-rule:nonzero;stroke:none;stroke-width:0.133333" />
      <path
         id="path363"
         d="m 649.68798,266.63735 -18.84933,-0.0307 v -2.21467 l 18.84933,0.0533 v 2.192"
         style="fill:#ec8614;fill-opacity:1;fill-rule:nonzero;stroke:none;stroke-width:0.133333" />
      <path
         id="path364"
         d="m 628.90131,298.22935 0.81334,-1.24666 c 0.22,0.0213 0.44266,0.032 0.66533,0.032 0.0333,0 0.0667,0 0.1,0 l 20.33467,-0.30667 0.768,1.16533 -22.68134,0.356"
         style="fill:#de7419;fill-opacity:1;fill-rule:nonzero;stroke:none;stroke-width:0.133333" />
      <path
         id="path365"
         d="m 650.61731,262.81735 -20.864,-0.0787 -0.852,-1.296 22.56267,-0.11067 -0.84667,1.48533"
         style="fill:#9a321d;fill-opacity:1;fill-rule:nonzero;stroke:none;stroke-width:0.133333" />
      <path
         id="path366"
         d="m 678.75465,294.58269 -18.244,0.25733 v -30.36267 l 18.244,0.052 v 30.05334"
         style="fill:#d2671b;fill-opacity:1;fill-rule:nonzero;stroke:none;stroke-width:0.133333" />
      <path
         id="path367"
         d="m 678.75465,264.52935 -18.244,-0.052 -1.87467,-2.90266 21.83733,-0.11067 -1.71866,3.06533"
         style="fill:#bb501e;fill-opacity:1;fill-rule:nonzero;stroke:none;stroke-width:0.133333" />
      <path
         id="path368"
         d="m 660.51065,294.84002 18.244,-0.25733 1.83333,2.836 -21.952,0.344 1.87467,-2.92267"
         style="fill:#bb501e;fill-opacity:1;fill-rule:nonzero;stroke:none;stroke-width:0.133333" />
      <path
         id="path369"
         d="m 678.75465,294.58269 v -30.05334 l 1.71866,-3.06533 0.11467,35.95467 -1.83333,-2.836"
         style="fill:#943e1c;fill-opacity:1;fill-rule:nonzero;stroke:none;stroke-width:0.133333" />
      <path
         id="path370"
         d="m 660.51065,294.84002 v -30.36267 l -1.87467,-2.90266 v 36.188 l 1.87467,-2.92267"
         style="fill:#943e1c;fill-opacity:1;fill-rule:nonzero;stroke:none;stroke-width:0.133333" />
      <path
         id="path371"
         d="m 667.68398,266.66669 -7.17333,-0.012 v -2.17734 l 7.17333,0.02 v 2.16934"
         style="fill:#ec8614;fill-opacity:1;fill-rule:nonzero;stroke:none;stroke-width:0.133333" />
      <path
         id="path372"
         d="m 658.63598,297.76269 0.78667,-1.22534 c 0.21333,0.02 0.42666,0.0307 0.644,0.0307 0.0307,0 0.0627,0 0.0947,0 l 7.52267,-0.11333 v 1.16666 l -9.048,0.14134"
         style="fill:#de7419;fill-opacity:1;fill-rule:nonzero;stroke:none;stroke-width:0.133333" />
      <path
         id="path373"
         d="m 667.68398,262.88135 -8.224,-0.0307 -0.824,-1.276 9.048,-0.0453 v 1.352"
         style="fill:#9a321d;fill-opacity:1;fill-rule:nonzero;stroke:none;stroke-width:0.133333" />
      <path
         id="path374"
         d="m 649.68798,243.94669 -18.84933,-0.268 v -73.324 l 18.84933,1.024 v 72.568"
         style="fill:#d2671b;fill-opacity:1;fill-rule:nonzero;stroke:none;stroke-width:0.133333" />
      <path
         id="path375"
         d="m 649.68798,171.37869 -18.84933,-1.024 -1.93734,-7.10133 22.56267,0.81066 -1.776,7.31467"
         style="fill:#bb501e;fill-opacity:1;fill-rule:nonzero;stroke:none;stroke-width:0.133333" />
      <path
         id="path376"
         d="m 630.83865,243.67869 18.84933,0.268 1.89467,6.936 -22.68134,-0.236 1.93734,-6.968"
         style="fill:#bb501e;fill-opacity:1;fill-rule:nonzero;stroke:none;stroke-width:0.133333" />
      <path
         id="path377"
         d="m 649.68798,243.94669 v -72.568 l 1.776,-7.31467 0.11867,86.81867 -1.89467,-6.936"
         style="fill:#943e1c;fill-opacity:1;fill-rule:nonzero;stroke:none;stroke-width:0.133333" />
      <path
         id="path378"
         d="m 630.83865,243.67869 v -73.324 l -1.93734,-7.10133 v 87.39333 l 1.93734,-6.968"
         style="fill:#943e1c;fill-opacity:1;fill-rule:nonzero;stroke:none;stroke-width:0.133333" />
      <path
         id="path379"
         d="m 649.68798,173.98136 -18.84933,-0.99734 v -2.62933 l 18.84933,1.024 v 2.60267"
         style="fill:#ec8614;fill-opacity:1;fill-rule:nonzero;stroke:none;stroke-width:0.133333" />
      <path
         id="path380"
         d="m 651.58265,250.88269 v 0 l -22.68134,-0.236 0.14,-0.504 0.67334,-2.41867 c 0.25333,0.068 0.508,0.108 0.76533,0.11067 l 20.33467,0.24266 0.768,2.80534"
         style="fill:#de7419;fill-opacity:1;fill-rule:nonzero;stroke:none;stroke-width:0.133333" />
      <path
         id="path381"
         d="m 628.90131,250.64669 v 0 l 0.14,-0.504 -0.14,0.504"
         style="fill:#c7671c;fill-opacity:1;fill-rule:nonzero;stroke:none;stroke-width:0.133333" />
      <path
         id="path382"
         d="m 651.46398,164.06402 -22.56267,-0.81066 v -10e-4 l 22.56267,0.812"
         style="fill:#af421f;fill-opacity:1;fill-rule:nonzero;stroke:none;stroke-width:0.133333" />
      <path
         id="path383"
         d="m 650.61731,167.55336 -20.864,-1.18 -0.852,-3.12 22.56267,0.81066 -0.84667,3.48934"
         style="fill:#9a321d;fill-opacity:1;fill-rule:nonzero;stroke:none;stroke-width:0.133333" />
      <path
         id="path384"
         d="m 650.61731,167.55336 v 0 l 0.84667,-3.48934 -0.84667,3.48934"
         style="fill:#7a2519;fill-opacity:1;fill-rule:nonzero;stroke:none;stroke-width:0.133333" />
      <path
         id="path385"
         d="m 678.75465,244.35869 -18.244,-0.25867 v -72.132 l 18.244,0.992 v 71.39867"
         style="fill:#d2671b;fill-opacity:1;fill-rule:nonzero;stroke:none;stroke-width:0.133333" />
      <path
         id="path386"
         d="m 678.75465,172.96002 -18.244,-0.992 -1.87467,-6.984 21.83733,0.77734 -1.71866,7.19866"
         style="fill:#bb501e;fill-opacity:1;fill-rule:nonzero;stroke:none;stroke-width:0.133333" />
      <path
         id="path387"
         d="m 660.51065,244.10002 18.244,0.25867 1.83333,6.824 -21.952,-0.228 1.87467,-6.85467"
         style="fill:#bb501e;fill-opacity:1;fill-rule:nonzero;stroke:none;stroke-width:0.133333" />
      <path
         id="path388"
         d="m 678.75465,244.35869 v -71.39867 l 1.71866,-7.19866 0.11467,85.42133 -1.83333,-6.824"
         style="fill:#943e1c;fill-opacity:1;fill-rule:nonzero;stroke:none;stroke-width:0.133333" />
      <path
         id="path389"
         d="m 660.51065,244.10002 v -72.132 l -1.87467,-6.984 v 85.97067 l 1.87467,-6.85467"
         style="fill:#943e1c;fill-opacity:1;fill-rule:nonzero;stroke:none;stroke-width:0.133333" />
      <path
         id="path390"
         d="m 667.68398,174.93469 -7.17333,-0.38 v -2.58667 l 7.17333,0.38934 v 2.57733"
         style="fill:#ec8614;fill-opacity:1;fill-rule:nonzero;stroke:none;stroke-width:0.133333" />
      <path
         id="path391"
         d="m 667.68398,251.04935 -9.048,-0.0947 0.78667,-2.87467 c 0.244,0.0667 0.49066,0.10533 0.73866,0.108 l 7.52267,0.0893 v 2.772"
         style="fill:#de7419;fill-opacity:1;fill-rule:nonzero;stroke:none;stroke-width:0.133333" />
      <path
         id="path392"
         d="m 667.68398,168.51869 -8.224,-0.46533 -0.824,-3.06934 9.048,0.32267 v 3.212"
         style="fill:#9a321d;fill-opacity:1;fill-rule:nonzero;stroke:none;stroke-width:0.133333" />
      <path
         id="path393"
         d="m 642.96665,259.77735 v -1.94933 l 0.54666,-0.004 v 0.0133 l 1.216,-0.009 v 0 l 1.48534,-0.012 13.70533,-0.104 v 0 l 1.88,-0.0147 3.072,-0.0227 v 1.60533 l -21.90533,0.49733"
         style="fill:#b8481f;fill-opacity:1;fill-rule:nonzero;stroke:none;stroke-width:0.133333" />
      <path
         id="path394"
         d="m 664.87198,253.13469 v 4.54 l -21.35867,0.16266 v -5.48666 l 21.35867,0.784"
         style="fill:#cecaea;fill-opacity:1;fill-rule:nonzero;stroke:none;stroke-width:0.133333" />
      <path
         id="path395"
         d="m 664.44665,257.03202 -20.15734,0.0267 v -3.856 l 20.15734,0.604 v 3.22533"
         style="fill:#e3dff2;fill-opacity:1;fill-rule:nonzero;stroke:none;stroke-width:0.133333" />
      <path
         id="path396"
         d="m 644.72931,257.82802 v 0 l 1.48534,-0.012 -1.48534,0.012"
         style="fill:#d88f70;fill-opacity:1;fill-rule:nonzero;stroke:none;stroke-width:0.133333" />
      <path
         id="path397"
         d="m 644.72931,257.82802 0.55467,-0.77067 2.42133,-0.003 -0.53333,0.75466 -0.95733,0.007 -1.48534,0.012"
         style="fill:#e3e1f3;fill-opacity:1;fill-rule:nonzero;stroke:none;stroke-width:0.133333" />
      <path
         id="path398"
         d="m 649.13598,252.55735 -0.59467,-0.0213 v -10e-4 l 0.59467,0.0227"
         style="fill:#e6a26b;fill-opacity:1;fill-rule:nonzero;stroke:none;stroke-width:0.133333" />
      <path
         id="path399"
         d="m 650.29865,253.38269 -2.31734,-0.0693 0.56,-0.77866 0.59467,0.0227 1.70133,0.0627 -0.53866,0.76267"
         style="fill:#e3e1f3;fill-opacity:1;fill-rule:nonzero;stroke:none;stroke-width:0.133333" />
      <path
         id="path400"
         d="m 645.28398,257.05735 2.69733,-3.744 2.31734,0.0693 -2.59334,3.672 -2.42133,0.003"
         style="fill:#efeef8;fill-opacity:1;fill-rule:nonzero;stroke:none;stroke-width:0.133333" />
      <path
         id="path401"
         d="m 654.82531,257.75069 0.468,-0.70667 2.044,-0.003 -0.45066,0.69334 -2.06134,0.016"
         style="fill:#c1bce4;fill-opacity:1;fill-rule:nonzero;stroke:none;stroke-width:0.133333" />
      <path
         id="path402"
         d="m 659.99198,252.95469 -0.428,-0.0147 0.428,0.0147"
         style="fill:#c5611c;fill-opacity:1;fill-rule:nonzero;stroke:none;stroke-width:0.133333" />
      <path
         id="path403"
         d="m 659.53465,253.66002 -1.96267,-0.0587 0.47333,-0.71733 1.51867,0.056 0.428,0.0147 -0.45733,0.70533"
         style="fill:#c1bce4;fill-opacity:1;fill-rule:nonzero;stroke:none;stroke-width:0.133333" />
      <path
         id="path404"
         d="m 655.29331,257.04402 2.27867,-3.44267 1.96267,0.0587 -2.19734,3.38133 -2.044,0.003"
         style="fill:#d5cfec;fill-opacity:1;fill-rule:nonzero;stroke:none;stroke-width:0.133333" />
      <path
         id="path405"
         d="m 659.91998,257.71202 v 0 l 1.88,-0.0147 v 0 l -1.88,0.0147"
         style="fill:#d88f70;fill-opacity:1;fill-rule:nonzero;stroke:none;stroke-width:0.133333" />
      <path
         id="path406"
         d="m 659.91998,257.71202 0.42667,-0.67467 1.86533,-0.003 -0.412,0.66266 -1.88,0.0147 m 4.3,-3.912 -1.79467,-0.0533 0.43334,-0.68667 1.78,0.0653 -0.41867,0.67467"
         style="fill:#e3e1f3;fill-opacity:1;fill-rule:nonzero;stroke:none;stroke-width:0.133333" />
      <path
         id="path407"
         d="m 660.34665,257.03735 2.07866,-3.29066 1.79467,0.0533 -2.008,3.23467 -1.86533,0.003"
         style="fill:#efeef8;fill-opacity:1;fill-rule:nonzero;stroke:none;stroke-width:0.133333" />
      <path
         id="path408"
         d="m 647.91331,257.80402 0.52667,-0.75067 0.97333,-0.001 -0.51866,0.744 -0.98134,0.008 m 4.02,-4.372 -0.932,-0.028 0.53334,-0.75867 0.92266,0.0333 -0.524,0.75333"
         style="fill:#c1bce4;fill-opacity:1;fill-rule:nonzero;stroke:none;stroke-width:0.133333" />
      <path
         id="path409"
         d="m 648.43998,257.05335 2.56133,-3.64933 0.932,0.028 -2.52,3.62 -0.97333,10e-4"
         style="fill:#d5cfec;fill-opacity:1;fill-rule:nonzero;stroke:none;stroke-width:0.133333" />
      <path
         id="path410"
         d="m 643.51331,257.82802 h -0.54666 v -5.47733 h 0.54666 v 5.47733"
         style="fill:#a39ed7;fill-opacity:1;fill-rule:nonzero;stroke:none;stroke-width:0.133333" />
      <path
         id="path411"
         d="m 627.43198,231.09469 -4.61466,-0.0973 V 206.0014 l 4.61466,0.16133 v 24.932"
         style="fill:#cecaea;fill-opacity:1;fill-rule:nonzero;stroke:none;stroke-width:0.133333" />
      <path
         id="path412"
         d="m 626.52532,231.07602 -0.908,-0.02 0.908,0.0187 v 10e-4"
         style="fill:#bc5d1c;fill-opacity:1;fill-rule:nonzero;stroke:none;stroke-width:0.133333" />
      <path
         id="path413"
         d="m 626.52532,231.07469 -0.908,-0.0187 v -12.56533 c 0.27066,0.3 0.576,0.55866 0.908,0.768 v 11.81733 m 0,-12.988 c -0.32934,-0.18267 -0.63334,-0.41333 -0.908,-0.684 v -0.007 c 0.27466,0.27067 0.58,0.50267 0.908,0.68534 v 0.005"
         style="fill:#b9b5e1;fill-opacity:1;fill-rule:nonzero;stroke:none;stroke-width:0.133333" />
      <path
         id="path414"
         d="m 626.52532,206.13069 -0.908,-0.032 v 0 l 0.908,0.032"
         style="fill:#bc5d1c;fill-opacity:1;fill-rule:nonzero;stroke:none;stroke-width:0.133333" />
      <path
         id="path415"
         d="m 625.61732,210.13469 v -4.036 l 0.908,0.032 v 3.356 c -0.328,0.16933 -0.63334,0.388 -0.908,0.648"
         style="fill:#b9b5e1;fill-opacity:1;fill-rule:nonzero;stroke:none;stroke-width:0.133333" />
      <path
         id="path416"
         d="m 626.02398,228.30269 -0.24666,-2.82 c 0.17733,-0.29734 0.3,-0.736 0.31333,-1.24667 0.024,-1.00133 -0.36933,-1.868 -0.88,-1.88267 -0.51333,-0.0147 -0.90667,0.832 -0.88133,1.83467 0.0133,0.512 0.13466,0.95733 0.31333,1.26533 l -0.24667,2.808 1.628,0.0413"
         style="fill:#302630;fill-opacity:1;fill-rule:nonzero;stroke:none;stroke-width:0.133333" />
      <path
         id="path417"
         d="m 625.80398,215.30935 h -1.45733 c -0.632,0 -1.144,-0.512 -1.144,-1.144 0,-0.63333 0.512,-1.14533 1.144,-1.14533 h 1.45733 v 2.28933"
         style="fill:#aba7db;fill-opacity:1;fill-rule:nonzero;stroke:none;stroke-width:0.133333" />
      <path
         id="path418"
         d="m 632.38265,213.90802 c 0,2.61467 -1.83867,4.69867 -4.112,4.65467 -2.276,-0.044 -4.12267,-2.20534 -4.12267,-4.828 0,-2.62267 1.84667,-4.70533 4.12267,-4.65333 2.27333,0.0507 4.112,2.21199 4.112,4.82666"
         style="fill:#cecaea;fill-opacity:1;fill-rule:nonzero;stroke:none;stroke-width:0.133333" />
      <path
         id="path419"
         d="m 627.43198,219.67869 c -0.31866,-0.1 -0.62266,-0.24134 -0.90666,-0.42 v -1.17067 c 0.28533,0.16 0.58933,0.284 0.90666,0.36667 v 1.224 m -1.81466,-1.188 c -0.73467,-0.81734 -1.212,-1.93734 -1.26934,-3.18134 h 0.0307 c 0.02,0.068 0.0427,0.136 0.0653,0.20267 0.25067,0.736 0.65734,1.384 1.17334,1.892 v 1.08667"
         style="fill:#b9b5e1;fill-opacity:1;fill-rule:nonzero;stroke:none;stroke-width:0.133333" />
      <path
         id="path420"
         d="m 626.52532,219.25869 c -0.332,-0.20934 -0.63734,-0.468 -0.908,-0.768 v -1.08667 c 0.27466,0.27067 0.57866,0.50133 0.908,0.684 v 1.17067"
         style="fill:#a8a3d9;fill-opacity:1;fill-rule:nonzero;stroke:none;stroke-width:0.133333" />
      <path
         id="path421"
         d="m 624.37865,215.30935 h -0.0307 c -0.003,-0.04 -0.004,-0.08 -0.005,-0.12133 0.012,0.0413 0.024,0.0813 0.036,0.12133"
         style="fill:#9b97d3;fill-opacity:1;fill-rule:nonzero;stroke:none;stroke-width:0.133333" />
      <path
         id="path422"
         d="m 624.44398,215.51202 c -0.0227,-0.0667 -0.0453,-0.13467 -0.0653,-0.20267 -0.012,-0.04 -0.024,-0.08 -0.036,-0.12133 0,-0.003 0,-0.007 0,-0.0107 0.0307,0.11334 0.064,0.22534 0.10133,0.33467"
         style="fill:#b9b5e1;fill-opacity:1;fill-rule:nonzero;stroke:none;stroke-width:0.133333" />
      <path
         id="path423"
         d="m 628.27465,218.56269 c -0.072,-0.001 -0.14267,-0.005 -0.21467,-0.0107 0.0707,0.005 0.14,0.009 0.21067,0.0107 0.0147,0 0.0293,0 0.044,0 -0.0133,0 -0.0267,0 -0.04,0 m -0.77333,-9.41733 c 0.007,0 0.0133,-0.001 0.02,-0.003 -0.007,0.001 -0.0133,0.003 -0.02,0.003 m 0.02,-0.003 c 0.21866,-0.0427 0.444,-0.064 0.67333,-0.064 0.0267,0 0.0533,0 0.08,0.001 0.132,0 0.26266,0.0107 0.39333,0.032 -0.13067,-0.0173 -0.26267,-0.028 -0.39733,-0.0307 -0.028,-0.001 -0.0547,-0.001 -0.0827,-0.001 -0.228,0 -0.45066,0.0213 -0.66666,0.0627"
         style="fill:#bc5d1c;fill-opacity:1;fill-rule:nonzero;stroke:none;stroke-width:0.133333" />
      <path
         id="path424"
         d="m 628.31465,218.56269 c -0.0147,0 -0.0293,0 -0.044,0 -0.0707,-0.001 -0.14,-0.005 -0.21067,-0.0107 -2.18,-0.17467 -3.90933,-2.28133 -3.90933,-4.81467 0,-2.32 1.44133,-4.21599 3.35067,-4.59199 0.007,0 0.0133,-0.001 0.02,-0.003 v 0 c 0.216,-0.0413 0.43866,-0.0627 0.66666,-0.0627 0.028,0 0.0547,0 0.0827,0.001 0.13466,0.003 0.26666,0.0133 0.39733,0.0307 0.0467,0.007 0.0933,0.016 0.14133,0.0267 -1.92533,0.36533 -3.38533,2.26 -3.38533,4.59866 0,2.388 1.53867,4.40134 3.552,4.76667 -0.21467,0.0373 -0.43733,0.0573 -0.66133,0.0587"
         style="fill:#b9b5e1;fill-opacity:1;fill-rule:nonzero;stroke:none;stroke-width:0.133333" />
      <path
         id="path425"
         d="m 629.06531,217.83602 c -0.0147,0 -0.028,0 -0.0427,0 -1.36667,-0.0333 -2.47333,-1.668 -2.47333,-3.64933 0,-0.324 0.0267,-0.63734 0.0867,-0.92934 0.27867,1.54667 1.24,2.69734 2.38667,2.72667 0.0147,0 0.0293,0 0.044,0 1.12133,0 2.06266,-1.09067 2.33733,-2.59867 0.0587,0.29334 0.0853,0.60934 0.0853,0.93067 0,1.95733 -1.08533,3.52 -2.424,3.52"
         style="fill:#b9b5e1;fill-opacity:1;fill-rule:nonzero;stroke:none;stroke-width:0.133333" />
      <path
         id="path426"
         d="m 631.85998,214.05869 c -0.16,-2.09067 -1.37067,-3.73467 -2.83733,-3.776 -0.0187,0 -0.0387,0 -0.0573,0 -1.44933,0 -2.62933,1.56533 -2.78933,3.62533 -0.005,-0.13867 -0.012,-0.27733 -0.012,-0.42533 0,-2.272 1.248,-4.07467 2.8,-4.07467 0.02,0 0.0387,0 0.0587,0 1.572,0.0453 2.84933,1.93333 2.84933,4.22667 0,0.14666 -0.005,0.28533 -0.012,0.424"
         style="fill:#e2dff3;fill-opacity:1;fill-rule:nonzero;stroke:none;stroke-width:0.133333" />
      <path
         id="path427"
         d="m 667.68398,304.07602 v -6.45467 l 11.50267,-0.18133 v 6.41333 l -11.50267,0.22267 m 0,-42.54667 v -10.48 l 11.50267,0.11867 v 10.30267 l -11.50267,0.0587 m 11.50267,-95.81333 -11.50267,-0.40933 V 154.6574 l 11.50267,0.73866 v 10.32 m 0,-46.29066 -11.50267,-0.86134 v -12.3787 l 17.83067,1.62933 -6.328,-0.57733 v 12.188"
         style="fill:#b8481f;fill-opacity:1;fill-rule:nonzero;stroke:none;stroke-width:0.133333" />
      <path
         id="path428"
         d="m 678.75465,152.50402 -11.07067,-0.72933 v -28.07333 l 11.07067,0.904 v 27.89866"
         style="fill:#b8481f;fill-opacity:1;fill-rule:nonzero;stroke:none;stroke-width:0.133333" />
      <path
         id="path429"
         d="m 678.75465,122.44936 -11.07067,-0.91734 v -1.616 l 11.50267,0.964 v 0.83334 l -0.432,0.736"
         style="fill:#a3371e;fill-opacity:1;fill-rule:nonzero;stroke:none;stroke-width:0.133333" />
      <path
         id="path430"
         d="m 679.18665,154.23736 -11.50267,-0.748 v -1.71467 l 11.07067,0.72933 0.432,0.70267 v 1.03067"
         style="fill:#a3371e;fill-opacity:1;fill-rule:nonzero;stroke:none;stroke-width:0.133333" />
      <path
         id="path431"
         d="m 679.18665,153.20669 -0.432,-0.70267 v -30.05466 l 0.432,-0.736 v 31.49333"
         style="fill:#822a1a;fill-opacity:1;fill-rule:nonzero;stroke:none;stroke-width:0.133333" />
      <path
         id="path432"
         d="m 678.75465,124.60536 -11.07067,-0.904 v -2.16934 l 11.07067,0.91734 v 2.156"
         style="fill:#d15e1d;fill-opacity:1;fill-rule:nonzero;stroke:none;stroke-width:0.133333" />
      <path
         id="path433"
         d="m 679.18665,155.39602 -11.50267,-0.73866 v -1.168 l 11.50267,0.748 v 1.15866"
         style="fill:#c3521e;fill-opacity:1;fill-rule:nonzero;stroke:none;stroke-width:0.133333" />
      <path
         id="path434"
         d="m 679.18665,119.42669 -11.50267,-0.86267 v 0 l 11.50267,0.86134 v 0.001"
         style="fill:#972d1d;fill-opacity:1;fill-rule:nonzero;stroke:none;stroke-width:0.133333" />
      <path
         id="path435"
         d="m 679.18665,120.88002 -11.50267,-0.964 v -1.352 l 11.50267,0.86267 v 1.45333"
         style="fill:#86211b;fill-opacity:1;fill-rule:nonzero;stroke:none;stroke-width:0.133333" />
      <path
         id="path436"
         d="m 667.68398,294.73869 v -28.072 l 11.07067,0.0173 v 27.89867 l -11.07067,0.156"
         style="fill:#b8481f;fill-opacity:1;fill-rule:nonzero;stroke:none;stroke-width:0.133333" />
      <path
         id="path437"
         d="m 678.75465,264.52935 -11.07067,-0.032 v -1.616 l 11.50267,0.0427 v 0.83333 l -0.432,0.772"
         style="fill:#a3371e;fill-opacity:1;fill-rule:nonzero;stroke:none;stroke-width:0.133333" />
      <path
         id="path438"
         d="m 667.68398,296.45469 v -1.716 l 11.07067,-0.156 0.432,0.66933 v 1.02933 l -11.50267,0.17334"
         style="fill:#a3371e;fill-opacity:1;fill-rule:nonzero;stroke:none;stroke-width:0.133333" />
      <path
         id="path439"
         d="m 679.18665,295.25202 -0.432,-0.66933 v -30.05334 l 0.432,-0.772 v 31.49467"
         style="fill:#822a1a;fill-opacity:1;fill-rule:nonzero;stroke:none;stroke-width:0.133333" />
      <path
         id="path440"
         d="m 678.75465,266.68402 -11.07067,-0.0173 v -2.16934 l 11.07067,0.032 v 2.15467"
         style="fill:#d15e1d;fill-opacity:1;fill-rule:nonzero;stroke:none;stroke-width:0.133333" />
      <path
         id="path441"
         d="m 667.68398,297.62135 v -1.16666 l 11.50267,-0.17334 v 1.15867 l -11.50267,0.18133"
         style="fill:#c3521e;fill-opacity:1;fill-rule:nonzero;stroke:none;stroke-width:0.133333" />
      <path
         id="path442"
         d="m 679.18665,262.92402 -11.50267,-0.0427 v -1.352 l 11.50267,-0.0587 v 1.45333"
         style="fill:#86211b;fill-opacity:1;fill-rule:nonzero;stroke:none;stroke-width:0.133333" />
      <path
         id="path443"
         d="m 678.75465,244.35869 -11.07067,-0.15734 v -69.26666 l 11.07067,0.58533 v 68.83867"
         style="fill:#b8481f;fill-opacity:1;fill-rule:nonzero;stroke:none;stroke-width:0.133333" />
      <path
         id="path444"
         d="m 678.75465,172.96002 -11.07067,-0.60266 v -3.83867 l 11.50267,0.65067 v 1.98 l -0.432,1.81066"
         style="fill:#a3371e;fill-opacity:1;fill-rule:nonzero;stroke:none;stroke-width:0.133333" />
      <path
         id="path445"
         d="m 679.18665,248.41469 -11.50267,-0.13734 v -4.076 l 11.07067,0.15734 0.432,1.60933 v 2.44667"
         style="fill:#a3371e;fill-opacity:1;fill-rule:nonzero;stroke:none;stroke-width:0.133333" />
      <path
         id="path446"
         d="m 679.18665,245.96802 -0.432,-1.60933 v -71.39867 l 0.432,-1.81066 v 74.81866"
         style="fill:#822a1a;fill-opacity:1;fill-rule:nonzero;stroke:none;stroke-width:0.133333" />
      <path
         id="path447"
         d="m 678.75465,175.52002 -11.07067,-0.58533 v -2.57733 l 11.07067,0.60266 v 2.56"
         style="fill:#d15e1d;fill-opacity:1;fill-rule:nonzero;stroke:none;stroke-width:0.133333" />
      <path
         id="path448"
         d="m 679.18665,251.16802 -11.50267,-0.11867 v -2.772 l 11.50267,0.13734 v 2.75333"
         style="fill:#c3521e;fill-opacity:1;fill-rule:nonzero;stroke:none;stroke-width:0.133333" />
      <path
         id="path449"
         d="m 679.18665,169.16936 -11.50267,-0.65067 v -3.212 l 11.50267,0.40933 v 3.45334"
         style="fill:#86211b;fill-opacity:1;fill-rule:nonzero;stroke:none;stroke-width:0.133333" />
      <path
         id="path450"
         d="m 679.18665,303.85335 v 0 l 6.328,-0.12266 -6.328,0.12266"
         style="fill:#b8481f;fill-opacity:1;fill-rule:nonzero;stroke:none;stroke-width:0.133333" />
      <path
         id="path451"
         d="m 679.18665,303.85335 v -6.41333 l 1.40133,-0.0213 -0.11467,-35.95467 -1.28666,0.007 v -10.30267 l 1.40133,0.0147 -0.11467,-85.42133 -1.28666,-0.0453 v -10.32 l 1.40133,0.0907 -0.11467,-35.964 -0.30266,0.516 0.30266,-0.516 v -0.001 l -1.28666,-0.096 v -12.18879 l 6.328,0.57733 v 195.916 l -6.328,0.12266"
         style="fill:#a0311e;fill-opacity:1;fill-rule:nonzero;stroke:none;stroke-width:0.133333" />
      <path
         id="path452"
         d="m 679.18665,121.71336 v -0.83334 l 0.46666,0.0387 -0.46666,0.79467 m 0.984,-1.67467 0.30133,-0.516 h 10e-4 l -0.30266,0.516"
         style="fill:#8d241c;fill-opacity:1;fill-rule:nonzero;stroke:none;stroke-width:0.133333" />
      <path
         id="path453"
         d="m 680.58798,155.48669 v 0 l -0.74267,-1.20667 -0.65866,-0.0427 v -1.03067 l 1.40133,2.28"
         style="fill:#8d241c;fill-opacity:1;fill-rule:nonzero;stroke:none;stroke-width:0.133333" />
      <path
         id="path454"
         d="m 680.58798,155.48669 v 0 m 0,0 -1.40133,-2.28 v -31.49333 l 0.46666,-0.79467 v 0 l 0.51734,-0.88 0.30266,-0.516 0.11467,35.964"
         style="fill:#6f1b17;fill-opacity:1;fill-rule:nonzero;stroke:none;stroke-width:0.133333" />
      <path
         id="path455"
         d="m 680.58798,155.48669 -1.40133,-0.0907 v -1.15866 l 0.65866,0.0427 0.74267,1.20667"
         style="fill:#aa391f;fill-opacity:1;fill-rule:nonzero;stroke:none;stroke-width:0.133333" />
      <path
         id="path456"
         d="m 680.47331,119.52269 -1.28666,-0.096 v -10e-4 l 1.28666,0.096 -10e-4,10e-4"
         style="fill:#821e1b;fill-opacity:1;fill-rule:nonzero;stroke:none;stroke-width:0.133333" />
      <path
         id="path457"
         d="m 679.65331,120.91869 -0.46666,-0.0387 v -1.45333 l 1.28666,0.096 -0.30266,0.516 -0.51734,0.88"
         style="fill:#711618;fill-opacity:1;fill-rule:nonzero;stroke:none;stroke-width:0.133333" />
      <path
         id="path458"
         d="m 679.65331,120.91869 v 0 l 0.51734,-0.88 -0.51734,0.88"
         style="fill:#581115;fill-opacity:1;fill-rule:nonzero;stroke:none;stroke-width:0.133333" />
      <path
         id="path459"
         d="m 679.18665,263.75735 v -0.83333 l 0.46666,0.001 -0.46666,0.832"
         style="fill:#8d241c;fill-opacity:1;fill-rule:nonzero;stroke:none;stroke-width:0.133333" />
      <path
         id="path460"
         d="m 680.58798,297.41869 -0.74267,-1.14667 -0.65866,0.009 v -1.02933 l 1.40133,2.16667"
         style="fill:#8d241c;fill-opacity:1;fill-rule:nonzero;stroke:none;stroke-width:0.133333" />
      <path
         id="path461"
         d="m 680.58798,297.41869 v 0 m 0,0 -1.40133,-2.16667 v -31.49467 l 0.46666,-0.832 v 0 l 0.82,-1.46133 0.11467,35.95467"
         style="fill:#6f1b17;fill-opacity:1;fill-rule:nonzero;stroke:none;stroke-width:0.133333" />
      <path
         id="path462"
         d="m 679.18665,297.44002 v -1.15867 l 0.65866,-0.009 0.74267,1.14667 -1.40133,0.0213"
         style="fill:#aa391f;fill-opacity:1;fill-rule:nonzero;stroke:none;stroke-width:0.133333" />
      <path
         id="path463"
         d="m 679.65331,262.92535 -0.46666,-10e-4 v -1.45333 l 1.28666,-0.007 -0.82,1.46133"
         style="fill:#711618;fill-opacity:1;fill-rule:nonzero;stroke:none;stroke-width:0.133333" />
      <path
         id="path464"
         d="m 679.65331,262.92535 v 0 l 0.82,-1.46133 -0.82,1.46133"
         style="fill:#581115;fill-opacity:1;fill-rule:nonzero;stroke:none;stroke-width:0.133333" />
      <path
         id="path465"
         d="m 679.18665,171.14936 v -1.98 l 0.46666,0.0267 -0.46666,1.95334"
         style="fill:#8d241c;fill-opacity:1;fill-rule:nonzero;stroke:none;stroke-width:0.133333" />
      <path
         id="path466"
         d="m 680.58798,251.18269 v 0 l -0.74267,-2.76 -0.65866,-0.008 v -2.44667 l 1.40133,5.21467"
         style="fill:#8d241c;fill-opacity:1;fill-rule:nonzero;stroke:none;stroke-width:0.133333" />
      <path
         id="path467"
         d="m 680.58798,251.18269 v 0 m 0,0 -1.40133,-5.21467 v -74.81866 l 0.46666,-1.95334 v 0 l 0.82,-3.43466 0.11467,85.42133"
         style="fill:#6f1b17;fill-opacity:1;fill-rule:nonzero;stroke:none;stroke-width:0.133333" />
      <path
         id="path468"
         d="m 680.58798,251.18269 -1.40133,-0.0147 v -2.75333 l 0.65866,0.008 0.74267,2.76"
         style="fill:#aa391f;fill-opacity:1;fill-rule:nonzero;stroke:none;stroke-width:0.133333" />
      <path
         id="path469"
         d="m 679.65331,169.19602 -0.46666,-0.0267 v -3.45334 l 1.28666,0.0453 -0.82,3.43466"
         style="fill:#711618;fill-opacity:1;fill-rule:nonzero;stroke:none;stroke-width:0.133333" />
      <path
         id="path470"
         d="m 679.65331,169.19602 v 0 l 0.82,-3.43466 -0.82,3.43466"
         style="fill:#581115;fill-opacity:1;fill-rule:nonzero;stroke:none;stroke-width:0.133333" />
      <path
         id="path471"
         d="m 620.06932,101.83335 v 203.16134 l -5.52134,1.69733 v -201.92 l 5.52134,-2.93867"
         style="fill:#f79129;fill-opacity:1;fill-rule:nonzero;stroke:none;stroke-width:0.133333" />
      <path
         id="path472"
         d="m 618.93732,232.04802 -3.11467,-0.53333 v -25.892 l 3.11467,-0.608 v 27.03333"
         style="fill:#cecaea;fill-opacity:1;fill-rule:nonzero;stroke:none;stroke-width:0.133333" />
    </g>
  </g>
</svg>
